SplineFontDB: 3.0
FontName: Muli-Italic-500B
FullName: Muli Italic-500B
FamilyName: Muli
Weight: Semi-bold
Copyright: 2013 (c) vernon adams
Version: x
ItalicAngle: -5
UnderlinePosition: 0
UnderlineWidth: 0
Ascent: 1638
Descent: 410
UFOAscent: 1694
UFODescent: -525
LayerCount: 2
Layer: 0 0 "Back"  1
Layer: 1 0 "Fore"  0
FSType: 0
OS2Version: 0
OS2_WeightWidthSlopeOnly: 0
OS2_UseTypoMetrics: 1
CreationTime: 1363324324
ModificationTime: 1363324442
PfmFamily: 33
TTFWeight: 500
TTFWidth: 5
LineGap: 0
VLineGap: 0
OS2TypoAscent: 1978
OS2TypoAOffset: 0
OS2TypoDescent: -679
OS2TypoDOffset: 0
OS2TypoLinegap: 0
OS2WinAscent: 1978
OS2WinAOffset: 0
OS2WinDescent: 679
OS2WinDOffset: 0
HheadAscent: 1978
HheadAOffset: 0
HheadDescent: -679
HheadDOffset: 0
OS2Vendor: 'newt'
Lookup: 258 0 0 "'kern' Horizontal Kerning in Latin lookup 0"  {"'kern' Horizontal Kerning in Latin lookup 0 subtable"  } ['kern' ('latn' <'dflt' > ) ]
MarkAttachClasses: 1
DEI: 91125
LangName: 1033 "" "" "" "" "" "" "" "" "" "" "" "" "" "Copyright (c) 2013, vernon adams (<URL|email>),+AAoA-with Reserved Font Name Muli.+AAoACgAA-This Font Software is licensed under the SIL Open Font License, Version 1.1.+AAoA-This license is copied below, and is also available with a FAQ at:+AAoA-http://scripts.sil.org/OFL+AAoA" "http://scripts.sil.org/OFL" 
Encoding: UnicodeBmp
Compacted: 1
UnicodeInterp: none
NameList: AGL For New Fonts
DisplaySize: -48
AntiAlias: 1
FitToEm: 1
WinInfo: 0 17 7
BeginPrivate: 0
EndPrivate
BeginChars: 65538 442

StartChar: A
Encoding: 65 65 0
Width: 1405
VWidth: 0
Flags: W
HStem: 0 21<24.3 24.3 24.3 260.7 1156.3 1156.3 1156.3 1387.1> 382 170 1436 20<713.4 931.8 931.8 931.8>
LayerCount: 2
Fore
SplineSet
508.7 560.7 m 1
 983.3 560.7 l 1
 867.9 1002.4 l 1
 804.2 1232.2 l 1
 702.9 1001.7 l 1
 508.7 560.7 l 1
24.3 0 m 1
 713.4 1456 l 1
 931.8 1456 l 1
 1387.1 0 l 1
 1156.3 0 l 1
 1038.4 378.1 l 1
 431.9 378.1 l 1
 260.7 0 l 1
 24.3 0 l 1
EndSplineSet
EndChar

StartChar: AE
Encoding: 198 198 1
Width: 2074
VWidth: 0
Flags: W
LayerCount: 2
Fore
SplineSet
37.3 0 m 1
 967.1 1456 l 1
 1978.5 1456 l 1
 1973 1275.6 l 1
 1284.5 1275.6 l 1
 1296.2 835.7 l 1
 1921.6 835.7 l 1
 1917.4 655 l 1
 1305.4 655 l 1
 1317.7 180.4 l 1
 1943 180.4 l 1
 1938.1 0 l 1
 1100.7 0 l 1
 1094.1 379.4 l 1
 526.4 379.4 l 1
 288.2 0 l 1
 37.3 0 l 1
623.2 551.8 m 1
 1086.8 551.8 l 1
 1084.8 1253.1 l 1
 1062.1 1253.1 l 1
 623.2 551.8 l 1
EndSplineSet
EndChar

StartChar: B
Encoding: 66 66 11
Width: 1339
VWidth: 0
Flags: W
HStem: 0 169 690 166 1287 169
VStem: 1060 209
LayerCount: 2
Fore
SplineSet
1259.604 1125.569 m 1
 1256.304 961.9469 1164.237 843.6981 1001.5 785.5 c 1
 1178.623 746.5935 1274.532 622.8117 1270.032 451.1434 c 0
 1264.332 233.099996721 1078.42620473 0 720.8 0 c 2
 188.7 0 l 1
 316.7 1456 l 1
 669.2 1456 l 2
 920.4035 1456 1268.604 1439.486 1259.604 1125.569 c 1
680.4 180.4 m 2
 908.4807 180.4 1041.985 276.8262 1045.885 454.5837 c 0
 1050.685 627.7782 939.2426 679.2 693.3 679.2 c 2
 460.6 679.2 l 1
 416.4 180.4 l 1
 680.4 180.4 l 2
688.5 854.8 m 2
 856.5012 854.8 1030.34 895.8418 1034.54 1087.975 c 0
 1038.74 1246.451 904.729 1275.6 704.8 1275.6 c 2
 512 1275.6 l 1
 474.9 854.8 l 1
 688.5 854.8 l 2
EndSplineSet
EndChar

StartChar: C
Encoding: 67 67 12
Width: 1402
VWidth: 0
Flags: W
LayerCount: 2
Fore
SplineSet
810.8 -22.7 m 0
 350.3 -8.6 140.7 324.1 168 711.4 c 0
 196.3 1111.2 483.6 1482.7 933 1482.7 c 0
 1121.7 1482.7 1276.3 1432.5 1397.6 1317.1 c 1
 1303.7 1174.3 l 1
 1196.2 1256.7 1071.1 1301.9 941.2 1301.9 c 0
 609.1 1301.9 412.6 1021 390.1 712.3 c 0
 369.2 424.3 503.1 161.6 846 157.4 c 0
 988.6 155.3 1147 208.3 1274.9 307.5 c 1
 1330.2 134.4 l 1
 1190.8 30.9 1016 -29.1 810.8 -22.7 c 0
EndSplineSet
EndChar

StartChar: D
Encoding: 68 68 18
Width: 1535
VWidth: 0
Flags: W
LayerCount: 2
Fore
SplineSet
416.4 180.4 m 1
 647 180.4 l 2
 1035.7 180.4 1241.8 386.7 1271.1 725.5 c 0
 1304.3 1106.7 1116.9 1275.6 664.5 1275.6 c 2
 512.6 1275.6 l 1
 416.4 180.4 l 1
188.7 0 m 1
 316.7 1456 l 1
 658.8 1456 l 2
 1213.8 1456 1539.1 1238.6 1493.9 725.9 c 0
 1453.3 265.3 1142.6 0 616.7 0 c 2
 188.7 0 l 1
EndSplineSet
EndChar

StartChar: E
Encoding: 69 69 21
Width: 1197
VWidth: 0
Flags: W
HStem: 0 169 691 169 1287 169
LayerCount: 2
Fore
SplineSet
188.7 0 m 1
 316.7 1456 l 1
 1202.9 1456 l 1
 1187.7 1275.6 l 1
 512 1275.6 l 1
 475.6 856.7 l 1
 1113.6 856.7 l 1
 1097.4 676 l 1
 460 676 l 1
 416.4 180.4 l 1
 1120.5 180.4 l 1
 1104.6 0 l 1
 188.7 0 l 1
EndSplineSet
EndChar

StartChar: Eng
Encoding: 330 330 30
Width: 1585
VWidth: 0
Flags: W
LayerCount: 2
Fore
SplineSet
521.2 -386.7 m 1
 561.5 -222.1 l 1
 675 -253.7 777.7 -272.4 865.8 -272.4 c 0
 1049 -272.4 1162 -208.1 1185.6 -12.7 c 0
 1186.3 -8.5 1192.1 64.1 1192.8 68.3 c 1
 576.1 1024 l 1
 489.7 1175.3 l 1
 387.6 0 l 1
 186.7 0 l 1
 313.7 1456 l 1
 543.4 1456 l 1
 1132.8 521 l 1
 1220.7 369.9 l 1
 1315.6 1456 l 1
 1519 1456 l 1
 1397.9 72.8 l 2
 1368.6 -267.3 1197.5 -433.2 857.8 -433.2 c 0
 760 -433.2 647.9 -417.5 521.2 -386.7 c 1
EndSplineSet
EndChar

StartChar: Eth
Encoding: 208 208 32
Width: 1505
VWidth: 0
Flags: W
LayerCount: 2
Fore
SplineSet
104.8 815.9 m 1
 727 815.9 l 1
 714 668.1 l 1
 91.8 668.1 l 1
 104.8 815.9 l 1
EndSplineSet
Refer: 18 68 N 1 0 0 1 0 0 2
EndChar

StartChar: Euro
Encoding: 8364 8364 33
Width: 1190
VWidth: 0
Flags: W
LayerCount: 2
Fore
SplineSet
750 -21 m 0
 423 -21 272 196 259 516 c 1
 124 516 l 1
 156 654 l 1
 258 654 l 1
 259 674 260 696 262 724 c 0
 263 741 265 761 268 784 c 1
 144 784 l 1
 178 922 l 1
 299 922 l 1
 382 1229 594 1448 910 1448 c 0
 1042 1448 1147 1410 1223 1330 c 1
 1170 1141 l 1
 1107 1248 1008 1303 891 1303 c 0
 676 1303 540 1131 476 922 c 1
 1068 922 l 1
 1036 784 l 1
 446 784 l 1
 444 771 441 755 440 739 c 0
 436 698 436 654 436 654 c 1
 1011 654 l 1
 980 516 l 1
 438 516 l 1
 449 285 545 125 779 125 c 0
 879 125 989 165 1107 253 c 1
 1090 75 l 1
 985 8 871 -21 750 -21 c 0
EndSplineSet
EndChar

StartChar: F
Encoding: 70 70 34
Width: 1126
VWidth: 0
Flags: W
LayerCount: 2
Fore
SplineSet
188.7 0 m 1
 316.7 1456 l 1
 1164.8 1456 l 1
 1149.6 1275.6 l 1
 512.3 1275.6 l 1
 474.2 847.6 l 1
 1077.9 847.6 l 1
 1062 668.8 l 1
 458.3 668.8 l 1
 400.2 0 l 1
 188.7 0 l 1
EndSplineSet
EndChar

StartChar: G
Encoding: 71 71 35
Width: 1522
VWidth: 0
Flags: W
LayerCount: 2
Fore
SplineSet
843.1 -22.7 m 0
 358.6 -22.7 129.3 267 167.3 702.6 c 0
 204.3 1129 515.9 1482.7 994.9 1482.7 c 0
 1305.1 1482.7 1458.6 1337.5 1458.6 1337.5 c 1
 1367.9 1182.1 l 1
 1367.9 1182.1 1239.2 1301.9 982.6 1301.9 c 0
 626.7 1301.9 414.5 1016.6 388.1 714.3 c 0
 359 386.5 512.8 157.4 871.4 157.4 c 0
 969.3 157.4 1088.7 175.1 1180 206.7 c 1
 1213.2 592.9 l 1
 843.7 592.9 l 1
 859.6 774 l 1
 1429.3 774 l 1
 1371.6 87.1 l 1
 1196.2 6 1012.5 -22.7 843.1 -22.7 c 0
EndSplineSet
EndChar

StartChar: H
Encoding: 72 72 40
Width: 1537
VWidth: 0
Flags: W
HStem: 0 21<188.7 188.7 188.7 401.8 1139.6 1139.6 1139.6 1347.5> 663 169 1436 20<316.7 527.2 527.2 527.2 1265.7 1475.5 1475.5 1475.5>
LayerCount: 2
Fore
SplineSet
188.7 0 m 1
 316.7 1456 l 1
 527.2 1456 l 1
 473.5 837.7 l 1
 1211.3 837.7 l 1
 1265.7 1456 l 1
 1475.5 1456 l 1
 1347.5 0 l 1
 1139.6 0 l 1
 1197.3 657 l 1
 459.5 657 l 1
 401.8 0 l 1
 188.7 0 l 1
EndSplineSet
EndChar

StartChar: Hbar
Encoding: 294 294 41
Width: 1538
VWidth: 0
Flags: W
LayerCount: 2
Fore
SplineSet
173.6 1113.7 m 1
 187.2 1267.9 l 1
 1542.6 1267.9 l 1
 1529 1113.7 l 1
 173.6 1113.7 l 1
EndSplineSet
Refer: 40 72 N 1 0 0 1 0 0 2
EndChar

StartChar: I
Encoding: 73 73 43
Width: 581
VWidth: 0
Flags: W
HStem: 0 21<182.4 182.4 182.4 391.6> 1436 20<310.4 519.6 519.6 519.6>
VStem: 189 324
LayerCount: 2
Fore
SplineSet
182.4 0 m 1
 310.4 1456 l 1
 519.6 1456 l 1
 391.6 0 l 1
 182.4 0 l 1
EndSplineSet
EndChar

StartChar: J
Encoding: 74 74 54
Width: 750
VWidth: 0
Flags: W
LayerCount: 2
Fore
SplineSet
172.7 -349.9 m 0
 73.2 -349.9 -26.3 -322.9 -92.2 -298 c 1
 -45.4 -132.6 l 1
 7.2 -149.7 80.9 -171.1 157.1 -171.1 c 0
 300.8 -171.1 342.4 -75.6 357.5 98 c 2
 475.513418254 1456 l 1
 689.913418254 1456 l 1
 570.5 99.3 l 2
 544.5 -197.8 405.5 -349.9 172.7 -349.9 c 0
EndSplineSet
EndChar

StartChar: K
Encoding: 75 75 56
Width: 1299
VWidth: 0
Flags: W
LayerCount: 2
Fore
SplineSet
188.7 0 m 1
 316.7 1456 l 1
 527.2 1456 l 1
 469.5 803.1 l 1
 1127.9 1456 l 1
 1391.4 1456 l 1
 676 749.2 l 1
 1307.8 0 l 1
 1035.8 0 l 1
 460.6 682 l 1
 400.5 0 l 1
 188.7 0 l 1
EndSplineSet
EndChar

StartChar: L
Encoding: 76 76 58
Width: 1114
VWidth: 0
Flags: W
HStem: 0 169 1436 20<314.7 525.2 525.2 525.2>
LayerCount: 2
Fore
SplineSet
186.7 0 m 1
 314.7 1456 l 1
 525.2 1456 l 1
 413.1 180.4 l 1
 1088.5 180.4 l 1
 1072.6 0 l 1
 186.7 0 l 1
EndSplineSet
EndChar

StartChar: Lslash
Encoding: 321 321 63
Width: 1141
VWidth: 0
Flags: W
LayerCount: 2
Fore
SplineSet
736.9 908.6 m 1
 79.7 484.5 l 1
 95.9 662.9 l 1
 752.1 1087 l 1
 736.9 908.6 l 1
EndSplineSet
Refer: 58 76 N 1 0 0 1 0 0 2
EndChar

StartChar: M
Encoding: 77 77 64
Width: 1929
VWidth: 0
Flags: W
HStem: 0 21<188.7 188.7 188.7 393.7 891.4 891.4 891.4 1042.8 1539.7 1539.7 1539.7 1740.1> 1436 20<316.7 570 570 570 1622.7 1868.1 1868.1 1868.1>
LayerCount: 2
Fore
SplineSet
188.7 0 m 1
 316.7 1456 l 1
 570 1456 l 1
 913.9 504.8 l 1
 992.2 289.4 l 1
 1109.3 510.1 l 1
 1622.7 1456 l 1
 1868.1 1456 l 1
 1740.1 0 l 1
 1539.7 0 l 1
 1639.2 1111.7 l 1
 1542.1 932.3 l 1
 1042.8 0 l 1
 891.4 0 l 1
 552.7 949.4 l 1
 492.3 1125.2 l 1
 393.7 0 l 1
 188.7 0 l 1
EndSplineSet
EndChar

StartChar: N
Encoding: 78 78 65
Width: 1582
VWidth: 0
Flags: W
LayerCount: 2
Fore
SplineSet
188.7 0 m 1
 316.7 1456 l 1
 543.6 1456 l 1
 1129.5 457.3 l 1
 1217.7 306.2 l 1
 1318.6 1456 l 1
 1522 1456 l 1
 1394 0 l 1
 1166.1 0 l 1
 577.2 996.4 l 1
 489.8 1147.7 l 1
 389.6 0 l 1
 188.7 0 l 1
EndSplineSet
EndChar

StartChar: O
Encoding: 79 79 70
Width: 1638
VWidth: 0
Flags: W
HStem: -23 169 1314 169
LayerCount: 2
Fore
SplineSet
832 157.4 m 0
 1160.6 157.4 1339.1 405.3 1367.5 733.7 c 0
 1395.9 1054.7 1261.5 1302.6 935.5 1302.6 c 0
 610.9 1302.6 423.4 1032.3 396.7 725 c 0
 369 407 504.8 157.4 832 157.4 c 0
819.7 -22.7 m 0
 368.9 -22.7 130 271 170 730.3 c 0
 208 1166 499.9 1482.7 956.8 1482.7 c 0
 1396 1482.7 1635.9 1183.4 1595.9 724.1 c 0
 1557.9 284.4 1271.6 -22.7 819.7 -22.7 c 0
EndSplineSet
EndChar

StartChar: OE
Encoding: 338 338 71
Width: 2102
VWidth: 0
Flags: W
LayerCount: 2
Fore
SplineSet
703 -23.3 m 0
 314.8 -23.3 70.8 287.4 109.5 730.3 c 0
 145.9 1148.7 451.8 1482.7 842 1482.7 c 0
 959 1482.7 1074.2 1452.1 1175.9 1392.9 c 1
 1181.6 1456 l 1
 2000 1456 l 1
 1983.8 1275.6 l 1
 1375.9 1275.6 l 1
 1337.4 835.7 l 1
 1908.3 835.7 l 1
 1892.4 655 l 1
 1322.8 655 l 1
 1281.3 180.4 l 1
 1917.6 180.4 l 1
 1901.7 0 l 1
 1053.6 0 l 1
 1060.7 77.1 l 1
 944 10.5 822.1 -23.3 703 -23.3 c 0
745.1 148.1 m 0
 860.1 148.1 973.1 183.4 1076 249.9 c 1
 1160 1209.4 l 1
 1068.6 1270.5 961.1 1301.6 844.8 1301.6 c 0
 567.7 1301.6 362.9 1032.3 336.2 725 c 0
 308.5 404.1 464.8 148.1 745.1 148.1 c 0
EndSplineSet
EndChar

StartChar: Omega
Encoding: 937 937 79
Width: 1603
VWidth: 0
Flags: W
LayerCount: 2
Fore
SplineSet
105.2 0 m 1
 89.8 170.1 l 1
 407.1 168.8 l 1
 250.3 309.4 157.6 513.7 180 771.5 c 0
 216 1180.2 536.3 1442.6 935.9 1442.6 c 0
 1350.5 1442.6 1586.1 1149.6 1552.1 764.3 c 0
 1528.7 500.8 1380.3 301.5 1214.1 168.8 c 1
 1259.7 168.8 1455.1 170.1 1498.1 170.1 c 1
 1467.8 0 l 1
 928.2 0 l 1
 935.5 144.1 l 1
 1145.1 278.2 1309.3 494.6 1331.7 749.5 c 0
 1356.1 1027.5 1222.6 1270.5 917.6 1270.5 c 0
 638.4 1270.5 425.8 1058 398.7 753.2 c 0
 376.3 498.3 493.8 274.6 682.4 144.1 c 1
 674.1 0 l 1
 105.2 0 l 1
EndSplineSet
EndChar

StartChar: Oslash
Encoding: 216 216 80
Width: 1663
VWidth: 0
Flags: W
LayerCount: 2
Fore
SplineSet
438 -131.2 m 1
 331.1 -71.6 l 1
 1330.1 1555.4 l 1
 1437 1495.8 l 1
 438 -131.2 l 1
EndSplineSet
Refer: 70 79 N 1 0 0 1 0 0 2
EndChar

StartChar: P
Encoding: 80 80 82
Width: 1272
VWidth: 0
Flags: W
LayerCount: 2
Fore
SplineSet
188.7 0 m 1
 316.7 1456 l 1
 703.7 1456 l 2
 1045.6 1456 1323.7 1421.6 1291.4 1053.6 c 0
 1264.4 743.8 1028 651.1 694.6 651.1 c 2
 456.6 651.1 l 1
 403.1 0 l 1
 188.7 0 l 1
473.5 829.3 m 1
 718.8 829.3 l 2
 915.3 829.3 1055 873.2 1070.4 1052.2 c 0
 1088.8 1265.6 935.3 1275.6 711.6 1275.6 c 2
 512 1275.6 l 1
 473.5 829.3 l 1
EndSplineSet
EndChar

StartChar: Q
Encoding: 81 81 83
Width: 1638
VWidth: 0
Flags: W
LayerCount: 2
Fore
SplineSet
1150.4 -433.9 m 1
 1150.4 -433.9 966.6 -248.1 870 -8.7 c 1
 1064.6 28 l 1
 1133.4 -146.6 1286.2 -300.8 1286.2 -300.8 c 1
 1150.4 -433.9 l 1
EndSplineSet
Refer: 70 79 N 1 0 0 1 0 0 2
EndChar

StartChar: R
Encoding: 82 82 84
Width: 1351
VWidth: 0
Flags: W
HStem: 0 21<188.7 188.7 188.7 401.8 1055.7 1055.7 1055.7 1282.4> 642 167 1287 169
LayerCount: 2
Fore
SplineSet
188.7 0 m 1
 316.7 1456 l 1
 727.8 1456 l 2
 967.7 1456 1300 1430.9 1265.7 1057.4 c 0
 1250 888.5 1174.6 754.9 970.7 695.4 c 1
 970.7 695.4 1089 657.2 1159.2 412.6 c 1
 1282.4 0 l 1
 1055.7 0 l 1
 932.5 420.6 l 2
 884.9 583.3 848.4 636.3 692.2 636.3 c 2
 457.5 636.3 l 1
 401.8 0 l 1
 188.7 0 l 1
471.8 814.7 m 1
 734.5 814.7 l 2
 899.4 814.7 1033.2 864.9 1049.6 1050.6 c 0
 1066 1232 963.8 1275.6 776.7 1275.6 c 2
 512.3 1275.6 l 1
 471.8 814.7 l 1
EndSplineSet
EndChar

StartChar: S
Encoding: 83 83 88
Width: 1230
VWidth: 0
Flags: W
HStem: -23 169 1313 170
LayerCount: 2
Fore
SplineSet
623 -22.7 m 0
 307.9 -22.7 145.1 142.6 145.1 142.6 c 1
 250 295.4 l 1
 250 295.4 421 157.4 631.2 157.4 c 0
 822.4 157.4 921.2 237.9 933.9 384.6 c 0
 946.7 528.5 833.5 590.1 611 667.7 c 0
 379.6 748.7 209.3 849.2 231.3 1093.3 c 1
 253.3 1352.5 482.2 1482.7 754.7 1482.7 c 0
 1084.7 1482.7 1197.1 1325.7 1197.1 1325.7 c 1
 1077.1 1184.6 l 1
 1077.1 1184.6 980.8 1301.9 770.7 1301.9 c 0
 625.3 1301.9 468.3 1251.6 455.2 1102.3 c 0
 441.4 948.2 559.8 903.8 773.2 827.9 c 0
 1023.9 739.5 1176.4 629.5 1155.1 384.1 c 0
 1129.4 92 892.3 -22.7 623 -22.7 c 0
EndSplineSet
EndChar

StartChar: T
Encoding: 84 84 94
Width: 1155
VWidth: 0
Flags: W
HStem: 0 21<471.6 471.6 471.6 681.8> 1287 169
LayerCount: 2
Fore
SplineSet
471.6 0 m 1
 583.7 1275.6 l 1
 124 1275.6 l 1
 139.9 1456 l 1
 1274.4 1456 l 1
 1258.5 1275.6 l 1
 793.9 1275.6 l 1
 681.8 0 l 1
 471.6 0 l 1
EndSplineSet
EndChar

StartChar: Tbar
Encoding: 358 358 95
Width: 1155
VWidth: 0
Flags: W
LayerCount: 2
Fore
SplineSet
268.7 621.2 m 1
 282 776.8 l 1
 1012.7 776.8 l 1
 999.4 621.2 l 1
 268.7 621.2 l 1
EndSplineSet
Refer: 94 84 N 1 0 0 1 0 0 2
EndChar

StartChar: Thorn
Encoding: 222 222 98
Width: 1285
VWidth: 0
Flags: W
LayerCount: 2
Fore
SplineSet
165 0 m 1
 291.7 1448.6 l 1
 501.9 1448.6 l 1
 482.2 1217.9 l 1
 668 1217.9 l 2
 1009.6 1217.9 1277 1141.5 1245.7 776.1 c 0
 1218.7 467.6 946 338 628 338 c 2
 403.6 338 l 1
 373.9 0 l 1
 165 0 l 1
419.5 518.4 m 1
 665.7 518.4 l 2
 865.8 518.4 1004.6 596.4 1020 775.4 c 0
 1038.4 988.2 897 1038.1 665.5 1038.1 c 2
 465 1038.1 l 1
 419.5 518.4 l 1
EndSplineSet
EndChar

StartChar: U
Encoding: 85 85 99
Width: 1493
VWidth: 0
Flags: W
LayerCount: 2
Fore
SplineSet
742.9 -22.7 m 0
 295.1 -22.7 185.6 224.6 214.6 556.7 c 2
 294 1456 l 1
 508 1456 l 1
 429 550.2 l 2
 403.7 266.7 518.7 157.4 761.6 157.4 c 0
 992.6 157.4 1137.7 269.5 1161.6 546.7 c 2
 1242 1456 l 1
 1456 1456 l 1
 1377.3 561.6 l 2
 1346.2 217.6 1176 -22.7 742.9 -22.7 c 0
EndSplineSet
EndChar

StartChar: V
Encoding: 86 86 110
Width: 1315
VWidth: 0
Flags: W
LayerCount: 2
Fore
SplineSet
555.730096456 0 m 1
 154.615048228 1456 l 1
 387.415048228 1456 l 1
 633.230096456 471.9 l 1
 688.730096456 264.8 l 1
 780.830096456 472.3 l 1
 1197.91504823 1456 l 1
 1417.31504823 1456 l 1
 769.030096456 0 l 1
 555.730096456 0 l 1
EndSplineSet
EndChar

StartChar: W
Encoding: 87 87 111
Width: 2031
VWidth: 0
Flags: W
LayerCount: 2
Fore
SplineSet
428.3 0 m 1
 157.9 1456 l 1
 380.2 1456 l 1
 542.6 499.6 l 1
 583.6 251.8 l 1
 672.7 487.4 l 1
 1042.6 1456 l 1
 1252.5 1456 l 1
 1459.5 492.4 l 1
 1509.8 254.8 l 1
 1587 487.1 l 1
 1907.8 1456 l 1
 2121.6 1456 l 1
 1605.7 0 l 1
 1367.4 0 l 1
 1120.9 1180.7 l 1
 667.1 0 l 1
 428.3 0 l 1
EndSplineSet
EndChar

StartChar: X
Encoding: 88 88 116
Width: 1318
VWidth: 0
Flags: W
LayerCount: 2
Fore
SplineSet
1045.2 0 m 1
 706.7 569.8 l 1
 264.2 0 l 1
 24.4 0 l 1
 599.2 735.6 l 1
 173 1456 l 1
 421.1 1456 l 1
 739.4 912.4 l 1
 1156.6 1456 l 1
 1391.2 1456 l 1
 846.1 746.6 l 1
 1291.1 0 l 1
 1045.2 0 l 1
EndSplineSet
EndChar

StartChar: Y
Encoding: 89 89 117
Width: 1258
VWidth: 0
Flags: W
LayerCount: 2
Fore
SplineSet
520.4 0 m 1
 571.4 582 l 1
 141.6 1456 l 1
 374.1 1456 l 1
 696.5 774.4 l 1
 1129.8 1456 l 1
 1369.9 1456 l 1
 781.6 584.7 l 1
 730.6 0 l 1
 520.4 0 l 1
EndSplineSet
EndChar

StartChar: Z
Encoding: 90 90 122
Width: 1198
VWidth: 0
Flags: W
LayerCount: 2
Fore
SplineSet
95 0 m 1
 105.6 113.2 l 1
 943.3 1275.6 l 1
 236.9 1275.6 l 1
 252.1 1456 l 1
 1243.2 1456 l 1
 1233.6 1346.8 l 1
 388.3 180.4 l 1
 1129.8 180.4 l 1
 1113.9 0 l 1
 95 0 l 1
EndSplineSet
EndChar

StartChar: a
Encoding: 97 97 126
Width: 1265
VWidth: 0
Flags: W
HStem: -23 153 0 21<909.2 1112.3 909.2 909.2> 897 154 1006 20<1003.5 1202.3 1202.3 1202.3>
VStem: 141 193 994 199
LayerCount: 2
Fore
SplineSet
690.3 886.2 m 0
 472.1596 886.2 352.7751 705.093 347.3751 476.1486 c 0
 342.2751 293.2042 421.5673 141.4 630.3 141.4 c 0
 842.5768 141.4 959.7872 298.5078 964.8872 565.1109 c 1
 970.2872 759.4844 884.142 886.2 690.3 886.2 c 0
935.3 216.9 m 1
 890.8382 78.58723 766.8047 -22.81683 583.4998 -22.81683 c 0
 278.7767 -22.81683 135.4026 228.6712 141.7026 475.9398 c 0
 149.2026 779.9955 340.5422 1051.58 661.3623 1051.58 c 0
 848.4709 1051.58 968.2203 942.7561 991.3 821 c 1
 1003.5 1026 l 1
 1202.3 1026 l 1
 1112.3 0 l 1
 909.2 0 l 1
 935.3 216.9 l 1
EndSplineSet
EndChar

StartChar: acute
Encoding: 180 180 130
Width: 607
VWidth: 0
Flags: W
HStem: 1171 318
VStem: 103 510
LayerCount: 2
Fore
SplineSet
120.4 1170.1 m 1
 392.7 1487.2 l 1
 654.4 1487.2 l 1
 296.6 1170.1 l 1
 120.4 1170.1 l 1
EndSplineSet
EndChar

StartChar: ae
Encoding: 230 230 132
Width: 1807
VWidth: 0
Flags: W
LayerCount: 2
Fore
SplineSet
467.9 -25.1 m 0
 241.8 -25.1 96.7 89.7 114 287.8 c 0
 139.4 579.6 406.9 627.2 798.7 627.2 c 1
 820.2 632.8 l 1
 831.3 764 779.8 886.2 630.9 886.2 c 0
 517.4 886.2 400.9 850.3 305.3 747.9 c 1
 240 891.3 l 1
 333.4 998.9 480.7 1052.7 661.6 1052.7 c 0
 771.5 1052.7 922 987.4 961 851.6 c 1
 1047.6 980.8 1182.2 1051.3 1328.8 1051.3 c 0
 1641.5 1051.3 1762 827.8 1735.3 523.7 c 0
 1735 517.6 1731.3 493.3 1728.4 484.3 c 1
 1003 484.3 l 1
 1002.7 479.8 1001.6 462.7 1001.3 458.2 c 0
 993.3 270.6 1085.2 141.4 1284.6 141.4 c 0
 1437.6 141.4 1562.7 222.6 1622.1 268.2 c 1
 1668.9 111.2 l 1
 1601.8 62.4 1467.1 -22.3 1259.9 -22.3 c 0
 1088 -22.3 948.9 71.7 880.5 209.9 c 1
 798 66.7 654.1 -25.1 467.9 -25.1 c 0
502.6 141.1 m 0
 714.4 141.1 789.3 294.9 806 462 c 1
 679.9 460.3 l 2
 499 457.6 329.8 440.8 317.4 296.4 c 0
 307.7 183.7 397.1 141.1 502.6 141.1 c 0
1018.2 624.1 m 1
 1553.3 624.1 l 1
 1553.3 636.9 l 1
 1548.1 796.4 1470.2 890.7 1329.7 890.7 c 0
 1168.5 890.7 1053.9 770.3 1018.2 624.1 c 1
EndSplineSet
EndChar

StartChar: ampersand
Encoding: 38 38 135
Width: 1576
VWidth: 0
Flags: W
LayerCount: 2
Fore
SplineSet
657.71710357 -27 m 0
 366.41710357 -27 167.11710357 133.9 191.81710357 407.8 c 0
 210.91710357 624.4 348.41710357 746.8 539.71710357 855.3 c 1
 453.91710357 958 381.41710357 1049 392.11710357 1177.1 c 0
 409.11710357 1374.9 591.71710357 1478.8 782.41710357 1478.8 c 0
 963.11710357 1478.8 1142.11710357 1383.9 1124.41710357 1183.1 c 0
 1110.71710357 1030.5 982.41710357 917.3 804.01710357 813.4 c 1
 1139.31710357 422.4 l 1
 1230.01710357 553.6 1275.91710357 736.9 1290.91710357 903.6 c 1
 1481.61710357 869.1 l 1
 1460.41710357 666.4 1385.01710357 439.8 1263.11710357 284.1 c 1
 1331.61710357 210.7 1410.01710357 147.5 1579.71710357 108 c 1
 1414.91710357 -16.3 l 1
 1288.91710357 3.3 1199.01710357 89 1132.31710357 161.6 c 1
 1013.41710357 52.9 854.61710357 -27 657.71710357 -27 c 0
672.21710357 144.3 m 0
 820.31710357 144.3 924.21710357 205.2 1017.41710357 289.4 c 1
 641.41710357 730.7 l 1
 506.61710357 654.8 409.91710357 562.2 400.71710357 408.8 c 0
 390.81710357 256.9 495.51710357 144.3 672.21710357 144.3 c 0
703.21710357 931.4 m 1
 825.71710357 1001.8 912.51710357 1077.8 921.61710357 1174.8 c 0
 930.31710357 1275.4 848.81710357 1314.3 776.41710357 1314.3 c 0
 690.41710357 1314.3 602.01710357 1267 593.91710357 1172.8 c 0
 586.21710357 1085.9 637.61710357 1002.8 703.21710357 931.4 c 1
EndSplineSet
EndChar

StartChar: approxequal
Encoding: 8776 8776 137
Width: 1351
VWidth: 0
Flags: W
LayerCount: 2
Fore
SplineSet
328 245.3 m 1
 175.9 285.8 l 1
 235 456.7 355.7 563 514.5 563 c 0
 608.1 563 693.3 519.4 768.6 476.7 c 1
 838 444.1 893.9 403.1 937.4 403.1 c 0
 1007.3 403.1 1057.2 464.1 1103.9 568.8 c 1
 1250.4 530.2 l 1
 1197 365 1093.4 253 919.8 253 c 0
 838.5 253 758.4 287.9 658.9 350 c 1
 601.3 382.9 545.3 410.9 500.2 410.9 c 0
 418.6 410.9 364.1 346.9 328 245.3 c 1
360.3 608 m 1
 205.6 642.7 l 1
 258.8 814.2 382.2 921.2 544.2 921.2 c 0
 632.1 921.2 702.8 888.5 789.1 834.2 c 1
 866 787 925.7 761 967.1 761 c 0
 1036 761 1087.6 820.6 1133.9 926 c 1
 1280.4 890 l 1
 1228 722.2 1120.5 612.8 949.5 612.8 c 0
 860.7 612.8 787.3 643.3 685.6 707.6 c 0
 627.7 743.7 576.2 771.7 527.6 771.7 c 0
 450.2 771.7 398.3 704.8 360.3 608 c 1
EndSplineSet
EndChar

StartChar: asciicircum
Encoding: 94 94 139
Width: 1301
VWidth: 0
Flags: W
LayerCount: 2
Fore
SplineSet
158.1 570.8 m 1
 720.3 1456 l 1
 849.2 1456 l 1
 1262.8 570.8 l 1
 1062.2 570.8 l 1
 763 1231.7 l 1
 361.3 570.8 l 1
 158.1 570.8 l 1
EndSplineSet
EndChar

StartChar: asciitilde
Encoding: 126 126 140
Width: 1329
VWidth: 0
Flags: W
LayerCount: 2
Fore
SplineSet
312.8 361.9 m 1
 167.2 435.2 l 1
 209.5 580.9 324.7 702.9 497.8 702.9 c 0
 579.9 702.9 676.2 660.3 759.4 622.5 c 1
 795.1 608.5 892.5 562 929.9 562 c 0
 1001.8 562 1062.6 649 1092.3 740 c 1
 1253.7 688.8 l 1
 1200.8 519.2 1083.6 394.9 916.6 394.9 c 0
 854.7 394.9 774.1 430.8 695.4 468.6 c 1
 659.7 483.3 540.9 537.8 487.5 537.8 c 0
 399.6 537.8 344.1 456.2 312.8 361.9 c 1
EndSplineSet
EndChar

StartChar: asterisk
Encoding: 42 42 141
Width: 1094
VWidth: 0
Flags: W
LayerCount: 2
Fore
SplineSet
774.296190945 695.9 m 1
 636.096190945 949.4 l 1
 455.296190945 699.4 l 1
 310.396190945 799.8 l 1
 530.096190945 1032.3 l 1
 266.296190945 1127 l 1
 333.296190945 1282.9 l 1
 585.796190945 1163.1 l 1
 579.396190945 1456 l 1
 769.196190945 1456 l 1
 720.496190945 1165.2 l 1
 971.296190945 1283.6 l 1
 1031.39619094 1133.3 l 1
 755.896190945 1033.7 l 1
 938.396190945 794.9 l 1
 774.296190945 695.9 l 1
EndSplineSet
EndChar

StartChar: at
Encoding: 64 64 142
Width: 1722
VWidth: 0
Flags: W
LayerCount: 2
Fore
SplineSet
829 430.7 m 0
 975.9 430.7 1103.8 630.4 1121.5 830.7 c 0
 1130.2 930.7 1101.7 991 1013.2 991 c 0
 854 991 723.5 776.1 707.8 601.1 c 0
 699.1 499.7 740.6 430.7 829 430.7 c 0
897.3 -81.1 m 0
 444.5 -81.1 132 228.8 171.9 684.5 c 0
 214.1 1159.4 604.8 1479.2 1046.8 1479.2 c 0
 1451 1479.2 1724.1 1198.8 1689.5 802.4 c 0
 1665.1 521.9 1478.2 260.7 1263.4 260.7 c 0
 1133.2 260.7 1074 335.3 1073.1 444.5 c 0
 1073.7 458.9 1073.9 475 1076.8 490.4 c 1
 1008.2 368 906.6 274.7 781.2 274.7 c 0
 631.3 274.7 501.5 393.9 522.1 630 c 0
 547 919.9 802.2 1154.9 1006.2 1154.9 c 0
 1098.1 1154.9 1171.3 1106.8 1195.8 1008 c 1
 1224.9 1118.2 l 1
 1397.2 1118.2 l 1
 1289.6 742.8 l 2
 1253.5 618.1 1229.4 538.6 1225.7 494.1 c 0
 1219.8 420.8 1243.2 382 1291.1 382 c 0
 1399.8 382 1531.1 566.1 1552.4 807.7 c 0
 1582.3 1148.3 1354.3 1349.5 1046.6 1349.5 c 0
 691.1 1349.5 372.7 1091.1 337.2 683.1 c 0
 302.3 287.7 574.8 54.8 921.3 54.8 c 0
 1086.1 54.8 1255.9 107.4 1400.6 208.5 c 1
 1462.3 121.6 l 1
 1311.5 -6.1 1106.6 -81.1 897.3 -81.1 c 0
EndSplineSet
EndChar

StartChar: b
Encoding: 98 98 144
Width: 1267
VWidth: 0
Flags: W
HStem: -23 153 0 21<153.2 361.3 153.2 153.2> 897 154 1462 20
LayerCount: 2
Fore
SplineSet
701 -22.7 m 1
 494.5 -20.6 399.9 126.3 375.4 185.1 c 1
 361.3 0 l 1
 153.2 0 l 1
 153.2 0 176.7 179.9 184.5 271.3 c 2
 289.9 1476.3 l 1
 493.4 1476.3 l 1
 437.2 856.5 l 1
 484.7 950.5 617.5 1051.3 794.4 1051.3 c 0
 1067.8 1051.3 1241.4 829.3 1214.7 522 c 0
 1185 185.5 962.7 -27.6 701 -22.7 c 1
682.6 141.4 m 0
 871.9 139.3 983.5 302.1 1001.6 530.4 c 0
 1017.9 737.1 932.2 886.2 744.7 886.2 c 0
 550.9 886.2 420.7 735.7 402.3 519.2 c 0
 383.5 295.8 483.5 143.5 682.6 141.4 c 0
EndSplineSet
EndChar

StartChar: backslash
Encoding: 92 92 145
Width: 825
VWidth: 0
Flags: W
LayerCount: 2
Fore
SplineSet
635.6 -44.3 m 1
 150.8 1456 l 1
 363.4 1456 l 1
 845.6 -44.3 l 1
 635.6 -44.3 l 1
EndSplineSet
EndChar

StartChar: bar
Encoding: 124 124 146
Width: 781
VWidth: 0
Flags: W
LayerCount: 2
Fore
SplineSet
254.9 -474 m 1
 429.7 1526.7 l 1
 623.9 1526.7 l 1
 449.1 -474 l 1
 254.9 -474 l 1
EndSplineSet
EndChar

StartChar: braceleft
Encoding: 123 123 147
Width: 693
VWidth: 0
Flags: W
LayerCount: 2
Fore
SplineSet
601.7 -208 m 1
 340.3 -204.5 229.9 -91.8 247.2 109.5 c 2
 267.3 340.4 l 2
 279.6 477.9 237.2 555.5 111.8 563.2 c 1
 124.7 710.2 l 1
 236 715.1 305.4 786.1 316.8 910.8 c 2
 336.9 1140.4 l 2
 353.9 1335.7 463.6 1480.2 749.4 1480.2 c 1
 736.8 1320.8 l 1
 614.2 1319.4 555 1250.3 542.7 1111.4 c 2
 520.6 860.6 l 2
 509.8 737.6 418.7 664.5 323.4 632.2 c 1
 420 588.3 487.3 495.2 477.4 371.8 c 2
 456.8 131.7 l 2
 444 -20.3 517.2 -49.3 614.9 -49.6 c 1
 601.7 -208 l 1
EndSplineSet
EndChar

StartChar: braceright
Encoding: 125 125 148
Width: 693
VWidth: 0
Flags: W
LayerCount: 2
Fore
SplineSet
60 -212.2 m 1
 72.6 -52.8 l 1
 195.2 -51.4 255.1 17.7 267.4 156.6 c 2
 289.5 407.4 l 2
 300.3 530.4 390.7 603.5 486 635.8 c 1
 389.4 679.7 322.8 772.8 332.7 896.2 c 2
 353.3 1136.3 l 2
 366.1 1288.3 292.2 1317.3 194.5 1317.6 c 1
 208.4 1476 l 1
 469.8 1472.5 579.5 1359.8 562.2 1158.5 c 2
 542.1 927.6 l 2
 529.8 790.1 572.2 712.5 697.6 704.8 c 1
 685.4 557.8 l 1
 574.1 552.9 504 481.2 492.6 356.5 c 2
 473.2 127.6 l 2
 456.2 -67.7 345.8 -212.2 60 -212.2 c 1
EndSplineSet
EndChar

StartChar: bracketleft
Encoding: 91 91 149
Width: 689
VWidth: 0
Flags: W
LayerCount: 2
Fore
SplineSet
157.661967599 -230.6 m 1
 305.061967599 1456 l 1
 719.161967599 1456 l 1
 705.261967599 1301.9 l 1
 496.261967599 1301.9 l 1
 375.961967599 -76.5 l 1
 585.961967599 -76.5 l 1
 572.061967599 -230.6 l 1
 157.661967599 -230.6 l 1
EndSplineSet
EndChar

StartChar: bracketright
Encoding: 93 93 150
Width: 675
VWidth: 0
Flags: W
LayerCount: 2
Fore
SplineSet
82.3 -230.6 m 1
 96.2 -76.5 l 1
 302.3 -76.5 l 1
 422.6 1301.9 l 1
 215.8 1301.9 l 1
 229.7 1456 l 1
 641.9 1456 l 1
 493.8 -230.6 l 1
 82.3 -230.6 l 1
EndSplineSet
EndChar

StartChar: breve
Encoding: 728 728 151
Width: 628
VWidth: 0
Flags: W
HStem: 1201 128 1436 20<150 281.7 281.7 281.7 618.4 747.4 747.4 747.4>
VStem: 153 117 625 114
LayerCount: 2
Fore
SplineSet
427.5 1192 m 0
 250.6 1192 147.7 1276.4 150 1456 c 1
 281.7 1456 l 1
 285.2 1360.3 362.7 1331.4 436.6 1331.4 c 0
 510.5 1331.4 594.8 1363.1 618.4 1456 c 1
 747.4 1456 l 1
 718.5 1277.8 600.2 1192 427.5 1192 c 0
EndSplineSet
EndChar

StartChar: brokenbar
Encoding: 166 166 152
Width: 500
VWidth: 0
Flags: W
LayerCount: 2
Fore
SplineSet
116.1 -474 m 1
 192.1 403.6 l 1
 388.3 403.6 l 1
 311.6 -474 l 1
 116.1 -474 l 1
210.7 623.7 m 1
 289.6 1526.7 l 1
 485.1 1526.7 l 1
 406.2 623.7 l 1
 210.7 623.7 l 1
EndSplineSet
EndChar

StartChar: bullet
Encoding: 8226 8226 153
Width: 988
VWidth: 0
Flags: W
LayerCount: 2
Fore
SplineSet
525.62666614 372.5 m 0
 329.62666614 372.5 201.62666614 518 216.62666614 687.9 c 0
 231.62666614 861.8 397.12666614 1010 583.32666614 1010 c 0
 775.02666614 1010 907.92666614 867.1 892.92666614 694.9 c 0
 877.92666614 521.3 713.82666614 372.5 525.62666614 372.5 c 0
EndSplineSet
EndChar

StartChar: c
Encoding: 99 99 154
Width: 1038
VWidth: 0
Flags: W
HStem: -23 153 897 154
LayerCount: 2
Fore
SplineSet
615.1 -22.7 m 0
 292.2 -22.7 115.5 201.5 141.9 504.6 c 0
 169.3 820.1 396.2 1056.2 714.3 1051.3 c 0
 857 1049.2 980.1 1003.9 1049.4 919.1 c 1
 953.1 791.3 l 1
 897 851 820.8 886.2 712.7 886.2 c 0
 508.7 886.2 375.8 740.4 355.4 507.7 c 0
 336 284.5 448.1 141.4 647.9 141.4 c 0
 768.3 141.4 871.4 192.8 932.1 236 c 1
 982.1 88.9 l 1
 879.4 16.1 757.1 -22.7 615.1 -22.7 c 0
EndSplineSet
EndChar

StartChar: caron
Encoding: 711 711 156
Width: 699
VWidth: 0
Flags: W
HStem: 1140 369
LayerCount: 2
Fore
SplineSet
365.7 1124.4 m 1
 123 1507.1 l 1
 318.5 1507.1 l 1
 463.6 1253.8 l 1
 633 1507.1 l 1
 836.4 1507.1 l 1
 542.2 1124.4 l 1
 365.7 1124.4 l 1
EndSplineSet
EndChar

StartChar: cedilla
Encoding: 184 184 161
Width: 529
VWidth: 0
Flags: W
LayerCount: 2
Fore
SplineSet
483.3 -271 m 0
 483.3 -404.0773 350.2931 -472.944 173.0151 -472.944 c 0
 119.3521 -472.944 62.93674 -466.2249 8.2 -453.9 c 1
 29.3 -346.3 l 1
 67.62512 -355.1562 115.8926 -363.169 160.7986 -363.169 c 0
 239.6269 -363.169 307.2 -338.5767 307.2 -266 c 0
 307.2 -210.6292 252.9275 -173.688 165.9023 -173.688 c 0
 160.093 -173.688 143.378 -173.9568 137.4 -174.5 c 1
 185.8 24.7 l 1
 290.1 24.7 l 1
 266.6 -94.7 l 1
 406.2 -101 483.3 -182.3 483.3 -271 c 0
EndSplineSet
EndChar

StartChar: cent
Encoding: 162 162 162
Width: 1113
VWidth: 0
Flags: W
LayerCount: 2
Fore
SplineSet
574.7 -130.3 m 1
 704.7 1342.4 l 1
 804.3 1342.4 l 1
 674.3 -130.3 l 1
 574.7 -130.3 l 1
EndSplineSet
Refer: 154 99 N 1 0 0 1 37.1 111.3 2
EndChar

StartChar: circumflex
Encoding: 710 710 163
Width: 699
VWidth: 0
Flags: W
HStem: 1140 369
VStem: 117 671
LayerCount: 2
Fore
SplineSet
110.1 1124.1 m 1
 393.1 1507.1 l 1
 571 1507.1 l 1
 794.6 1124.1 l 1
 620.8 1124.1 l 1
 475.6 1373.6 l 1
 282.3 1124.1 l 1
 110.1 1124.1 l 1
EndSplineSet
EndChar

StartChar: colon
Encoding: 58 58 164
Width: 542
VWidth: 0
Flags: W
LayerCount: 2
Fore
SplineSet
138.5 -6.1 m 1
 159.4 232.8 l 1
 416.2 232.8 l 1
 395.3 -6.1 l 1
 138.5 -6.1 l 1
214.8 867.1 m 1
 235 1105.3 l 1
 491.5 1105.3 l 1
 470.9 867.1 l 1
 214.8 867.1 l 1
EndSplineSet
EndChar

StartChar: comma
Encoding: 44 44 165
Width: 525
VWidth: 0
Flags: W
HStem: -285 529
VStem: 52 366
LayerCount: 2
Fore
SplineSet
49.3 -271.5 m 1
 209.9 248.5 l 1
 431.5 248.5 l 1
 217.5 -271.5 l 1
 49.3 -271.5 l 1
EndSplineSet
EndChar

StartChar: commaaccent
Encoding: 65536 -1 166
Width: 540
VWidth: 0
Flags: W
LayerCount: 2
Fore
SplineSet
67.7 -575.4 m 1
 219.5 -92.5 l 1
 450.5 -92.5 l 1
 236.9 -575.4 l 1
 67.7 -575.4 l 1
EndSplineSet
EndChar

StartChar: copyright
Encoding: 169 169 167
Width: 1829
VWidth: 0
Flags: W
LayerCount: 2
Fore
SplineSet
965.6 270.2 m 0
 703.2 270.2 515.2 457.8 538.2 724.8 c 0
 561.9 996 782 1180.1 1050.7 1180.1 c 0
 1154.4 1180.1 1252.3 1149.6 1337.6 1085.4 c 1
 1284.1 948.4 l 1
 1209.1 1002.4 1125.8 1028 1042 1028 c 0
 860.8 1028 737.5 893.9 722.4 726.9 c 0
 707.3 558.5 805.7 423 1001.6 423 c 0
 1077.7 423 1159.8 445.1 1242.1 495.6 c 1
 1275.9 358.6 l 1
 1178.5 298.6 1072.1 270.2 965.6 270.2 c 0
1047.6 1483.7 m 0
 1497.2 1483.7 1810.6 1142.3 1773.9 727.9 c 0
 1737.2 312.7 1365.2 -27.2 920.1 -27.2 c 0
 468.2 -27.2 156 313.3 192.7 729.5 c 0
 229.4 1144.5 603.4 1483.7 1047.6 1483.7 c 0
1039.6 1367.2 m 0
 660.5 1367.2 360.4 1086.8 329.4 728.8 c 0
 298.1 369.9 550.4 86.2 929.8 86.2 c 0
 1306.9 86.2 1608 368.9 1639 725.9 c 0
 1670.3 1085.8 1417.3 1367.2 1039.6 1367.2 c 0
EndSplineSet
EndChar

StartChar: currency
Encoding: 164 164 168
Width: 1218
VWidth: 0
Flags: W
LayerCount: 2
Fore
SplineSet
1124.7 543.7 m 1
 954.7 729.7 l 1
 881.7 673.7 791.7 639.7 695.7 639.7 c 0
 599.7 639.7 514.7 673.7 451.7 730.7 c 1
 247.7 543.7 l 1
 201.7 594.7 l 1
 404.7 781.7 l 1
 355.7 847.7 329.7 931.7 337.7 1024.7 c 0
 345.7 1121.7 389.7 1209.7 454.7 1276.7 c 1
 276.7 1471.7 l 1
 332.7 1522.7 l 1
 512.7 1326.7 l 1
 583.7 1378.7 670.7 1409.7 762.7 1409.7 c 0
 854.7 1409.7 935.7 1378.7 998.7 1327.7 c 1
 1210.7 1522.7 l 1
 1256.7 1471.7 l 1
 1046.7 1278.7 l 1
 1100.7 1210.7 1129.7 1122.7 1120.7 1024.7 c 0
 1112.7 931.7 1072.7 846.7 1010.7 779.7 c 1
 1180.7 594.7 l 1
 1124.7 543.7 l 1
700.7 710.7 m 0
 874.7 710.7 1014.7 849.1 1029.7 1023.1 c 0
 1044.7 1197.1 928.7 1331.7 754.7 1331.7 c 0
 580.7 1331.7 440.7 1197.1 425.7 1023.1 c 0
 410.7 849.1 526.7 710.7 700.7 710.7 c 0
EndSplineSet
EndChar

StartChar: d
Encoding: 100 100 169
Width: 1255
VWidth: 0
Flags: W
HStem: -23 153 0 21<893 1101.1 893 893> 897 154 1462 20
LayerCount: 2
Fore
SplineSet
569.9 -22.7 m 0
 303 -22.7 113.6 182 141.9 507.3 c 0
 169.3 819.5 366.2 1051.3 673.9 1051.3 c 0
 825.1 1051.3 931.3 977.3 968.9 893.2 c 1
 1019 1476.3 l 1
 1222.5 1476.3 l 1
 1117.1 265 l 2
 1112.7 212.9 1109.6 153.4 1101.1 0 c 1
 893 0 l 1
 906.5 163.5 l 1
 862.5 73.8 748.1 -22.7 569.9 -22.7 c 0
615.4 141.4 m 0
 811 141.4 921.4 305.6 940.9 529.7 c 0
 959.3 737.1 872 886.2 682.4 886.2 c 0
 491.4 886.2 376.1 730.1 357 511.5 c 0
 338.9 299.3 423.3 141.4 615.4 141.4 c 0
EndSplineSet
EndChar

StartChar: dagger
Encoding: 8224 8224 170
Width: 1022
VWidth: 0
Flags: W
LayerCount: 2
Fore
SplineSet
379.8 77.7 m 1
 452.8 911.2 l 1
 129.8 911.2 l 1
 143.7 1074.3 l 1
 466.7 1074.3 l 1
 499.4 1446.2 l 1
 673.7 1446.2 l 1
 641 1074.3 l 1
 974.6 1074.3 l 1
 960.7 911.2 l 1
 620.1 911.2 l 1
 547.1 77.7 l 1
 379.8 77.7 l 1
EndSplineSet
EndChar

StartChar: daggerdbl
Encoding: 8225 8225 171
Width: 1071
VWidth: 0
Flags: W
LayerCount: 2
Fore
SplineSet
403.7 -6 m 1
 453.7 413.6 l 1
 113.1 413.6 l 1
 125.6 556.7 l 1
 466.2 556.7 l 1
 498.7 928.4 l 1
 162.8 928.4 l 1
 176 1077.8 l 1
 511.9 1077.8 l 1
 530.9 1446.4 l 1
 717.2 1446.4 l 1
 675.7 1077.8 l 1
 1013.9 1077.8 l 1
 1000.7 928.4 l 1
 662.5 928.4 l 1
 630 556.7 l 1
 959.9 556.7 l 1
 947.4 413.6 l 1
 617.5 413.6 l 1
 590 -6 l 1
 403.7 -6 l 1
EndSplineSet
EndChar

StartChar: dblgravecmb
Encoding: 783 783 172
Width: 969
VWidth: 0
Flags: W
HStem: 1174 313<117 365 447 485>
LayerCount: 2
Fore
SplineSet
365 1174 m 1
 117 1487 l 1
 293 1487 l 1
 485 1174 l 1
 365 1174 l 1
694 1174 m 1
 447 1487 l 1
 623 1487 l 1
 812 1174 l 1
 694 1174 l 1
EndSplineSet
EndChar

StartChar: dcroat
Encoding: 273 273 174
Width: 1255
VWidth: 0
Flags: W
LayerCount: 2
Fore
SplineSet
707.4 1210.6 m 1
 721 1357.8 l 1
 1334.5 1357.8 l 1
 1320.9 1210.6 l 1
 707.4 1210.6 l 1
EndSplineSet
Refer: 169 100 N 1 0 0 1 0 0 2
EndChar

StartChar: degree
Encoding: 176 176 175
Width: 844
VWidth: 0
Flags: W
LayerCount: 2
Fore
SplineSet
519.3 1011 m 0
 627.7 1011 688.8 1098 693 1189.4 c 0
 697.2 1275.3 646.4 1351.7 547.1 1351.7 c 0
 440.1 1351.7 377 1265.1 372.8 1173.4 c 0
 368.6 1087.8 418 1011 519.3 1011 c 0
509.3 879.6 m 0
 326.7 879.6 221.3 1012.6 227.6 1164 c 0
 233.9 1326.3 363.9 1480.5 561.3 1480.5 c 0
 743.3 1480.5 848.7 1347.2 842.4 1195.8 c 0
 836.1 1033.8 705.7 879.6 509.3 879.6 c 0
EndSplineSet
EndChar

StartChar: dieresis
Encoding: 168 168 176
Width: 743
VWidth: 0
Flags: W
HStem: 1202 184
VStem: 196 579
LayerCount: 2
Fore
SplineSet
179.2 1212.2 m 1
 196.4 1407 l 1
 400.2 1407 l 1
 383 1212.2 l 1
 179.2 1212.2 l 1
574.4 1212.2 m 1
 591.6 1407 l 1
 795.1 1407 l 1
 777.9 1212.2 l 1
 574.4 1212.2 l 1
EndSplineSet
EndChar

StartChar: divide
Encoding: 247 247 177
Width: 1350
VWidth: 0
Flags: W
LayerCount: 2
Fore
SplineSet
547.1 2.4 m 1
 567.3 241.6 l 1
 823.5 241.6 l 1
 802.9 2.4 l 1
 547.1 2.4 l 1
210.1 468 m 1
 225 639.1 l 1
 1226.4 639.1 l 1
 1211.5 468 l 1
 210.1 468 l 1
619.8 857.6 m 1
 640.7 1096.5 l 1
 896.2 1096.5 l 1
 875.3 857.6 l 1
 619.8 857.6 l 1
EndSplineSet
EndChar

StartChar: dollar
Encoding: 36 36 178
Width: 1209
VWidth: 0
Flags: W
LayerCount: 2
Fore
SplineSet
574.8 -195.4 m 1
 734.7 1621.4 l 1
 821.8 1621.4 l 1
 662.6 -195.4 l 1
 574.8 -195.4 l 1
EndSplineSet
Refer: 88 83 N 1 0 0 1 0 0 2
EndChar

StartChar: dotaccent
Encoding: 729 729 179
Width: 524
VWidth: 0
Flags: W
HStem: 1243 183
VStem: 285 185
LayerCount: 2
Fore
SplineSet
280.2 1241.2 m 1
 296 1435 l 1
 495.7 1435 l 1
 479.9 1241.2 l 1
 280.2 1241.2 l 1
EndSplineSet
EndChar

StartChar: dotaccentcmb
Encoding: 775 775 180
Width: 524
VWidth: 0
Flags: W
HStem: 1246 163<293 462 305 451>
VStem: 293 158<1246 1246>
LayerCount: 2
Fore
SplineSet
293 1246 m 1
 305 1409 l 1
 462 1409 l 1
 451 1246 l 1
 293 1246 l 1
EndSplineSet
EndChar

StartChar: dotlessi
Encoding: 305 305 181
Width: 526
VWidth: 0
Flags: W
HStem: 0 21<175.3 175.3 175.3 380.1> 1006 20<265.3 469.4 469.4 469.4>
VStem: 184 280
LayerCount: 2
Fore
SplineSet
175.3 0 m 1
 265.3 1026 l 1
 469.4 1026 l 1
 380.1 0 l 1
 175.3 0 l 1
EndSplineSet
EndChar

StartChar: dotlessj
Encoding: 567 567 182
Width: 542
VWidth: 0
Flags: W
HStem: -404 149 1006 20<289.3 492.8 492.8 492.8>
VStem: -128 601
LayerCount: 2
Fore
SplineSet
38.7 -391.4 m 0
 -9.3 -391.4 -59.1 -386.6 -118.1 -373.4 c 1
 -88.5 -221.9 l 1
 -49.9 -230.1 -16.3 -234.9 12.5 -234.9 c 0
 146.8 -234.9 186.9 -147.4 203.6 48 c 2
 289.3 1026 l 1
 492.8 1026 l 1
 404.4 15.2 l 2
 383.7 -220.1 296.9 -391.4 38.7 -391.4 c 0
EndSplineSet
EndChar

StartChar: e
Encoding: 101 101 183
Width: 1152
VWidth: 0
Flags: W
HStem: -23 153 487 132 900 151
VStem: 140 201 934 163
LayerCount: 2
Fore
SplineSet
140.838510208 470.7 m 1
 148.338510208 805.1 376.538510208 1051.3 692.338510208 1051.3 c 0
 974.238510209 1051.3 1114.93851021 852.3 1107.13851021 579.7 c 0
 1106.83851021 558.340359385 1117.25122698 631.695375779 1096.73851021 484.3 c 1
 355.738510208 484.3 l 1
 355.738510208 239.7 479.242676875 141.4 669.038510208 141.4 c 0
 798.038510208 141.4 924.238510208 205.4 997.138510209 257.1 c 1
 1040.03851021 104.9 l 1
 961.738510209 47.5 825.5 -22.7 636.8 -22.7 c 0
 347.4 -22.7 132.438510208 173.2 140.838510208 470.7 c 1
373.038510208 624.1 m 1
 933.338510208 624.1 l 1
 929.138510208 804.6 820.638510208 890.7 684.138510208 890.7 c 0
 529.838510208 890.7 416.738510208 783.6 373.038510208 624.1 c 1
EndSplineSet
EndChar

StartChar: eight
Encoding: 56 56 191
Width: 1237
VWidth: 0
Flags: W
HStem: -23 163 1324 159
LayerCount: 2
Fore
SplineSet
634.177333661 -23 m 0
 361.677333661 -23 151.888666831 123.5 174.188666831 384.3 c 0
 189.888666831 558.7 303.977333661 694.5 490.877333661 763.3 c 1
 342.977333661 827.7 255.588666831 942.3 270.288666831 1106.6 c 0
 290.588666831 1343.4 501.277333661 1483 762.977333661 1483 c 0
 1035.97733366 1483 1210.48866683 1340.2 1190.18866683 1101.8 c 0
 1175.48866683 937.2 1073.37733366 821.9 913.577333661 761.7 c 1
 1079.77733366 695.8 1175.48866683 553.3 1160.78866683 380.8 c 0
 1138.48866683 120.3 893.877333661 -23 634.177333661 -23 c 0
648.3 149.6 m 0
 813.7 149.6 937.177333661 236.2 950.877333661 397.3 c 0
 963.277333661 538.2 852.177333661 645.2 696.477333661 680.6 c 1
 529.377333661 646.5 401.877333661 544.6 389.177333661 395.7 c 0
 375.777333661 240.7 481.3 149.6 648.3 149.6 c 0
707.877333661 846.6 m 1
 868.177333661 883.2 970.277333661 971 981.977333661 1104.5 c 0
 993.377333661 1234.7 884.2 1313.2 748.2 1313.2 c 0
 608.7 1313.2 490.677333661 1237.3 478.977333661 1099.4 c 0
 467.577333661 970.4 552.277333661 881.6 707.877333661 846.6 c 1
EndSplineSet
EndChar

StartChar: ellipsis
Encoding: 8230 8230 192
Width: 1620
VWidth: 0
Flags: W
LayerCount: 2
Fore
SplineSet
128.2 -6.1 m 1
 148.1 232.8 l 1
 404.9 232.8 l 1
 385.3 -6.1 l 1
 128.2 -6.1 l 1
659.2 -6.1 m 1
 679.1 232.8 l 1
 935.9 232.8 l 1
 916.3 -6.1 l 1
 659.2 -6.1 l 1
1190.2 -6.1 m 1
 1210.8 232.8 l 1
 1466.3 232.8 l 1
 1445.7 -6.1 l 1
 1190.2 -6.1 l 1
EndSplineSet
EndChar

StartChar: emdash
Encoding: 8212 8212 194
Width: 2171
VWidth: 0
Flags: W
LayerCount: 2
Fore
SplineSet
49.6 472 m 1
 64.8 641.1 l 1
 2199.6 641.1 l 1
 2184.4 472 l 1
 49.6 472 l 1
EndSplineSet
EndChar

StartChar: endash
Encoding: 8211 8211 195
Width: 1085
VWidth: 0
Flags: W
LayerCount: 2
Fore
SplineSet
35.7 472 m 1
 50.9 641.1 l 1
 1148.3 641.1 l 1
 1133.1 472 l 1
 35.7 472 l 1
EndSplineSet
EndChar

StartChar: eng
Encoding: 331 331 196
Width: 1221
VWidth: 0
Flags: W
LayerCount: 2
Fore
SplineSet
202.8 -352.4 m 1
 243.4 -187.1 l 1
 356.9 -218.7 460.3 -237.4 548.4 -237.4 c 0
 747.7 -237.4 854.6 -139.6 874 85.2 c 2
 915.8 564.7 l 2
 934.2 773.3 908.5 886.2 733.6 886.2 c 0
 585.3 886.2 435.2 753.5 424.3 634 c 2
 368.9 0 l 1
 165.1 0 l 1
 227 711.3 l 2
 242.8 891.4 241.7 1026 241.7 1026 c 1
 453.6 1026 l 1
 443.4 881.1 l 1
 522.8 995 660.1 1051.3 787.4 1051.3 c 0
 1052.4 1051.3 1147.2 890.2 1119.3 566.7 c 2
 1081.1 124.5 l 2
 1051.8 -215.6 879.1 -398.2 539.4 -398.2 c 0
 441.6 -398.2 329.5 -383.2 202.8 -352.4 c 1
EndSplineSet
EndChar

StartChar: equal
Encoding: 61 61 198
Width: 1330
VWidth: 0
Flags: W
LayerCount: 2
Fore
SplineSet
213.9 665.6 m 1
 228.8 833.1 l 1
 1232.9 833.1 l 1
 1218 665.6 l 1
 213.9 665.6 l 1
180.2 274 m 1
 195.1 441.2 l 1
 1199.8 441.2 l 1
 1185.6 274 l 1
 180.2 274 l 1
EndSplineSet
EndChar

StartChar: exclam
Encoding: 33 33 199
Width: 612
VWidth: 0
Flags: W
HStem: -15 226 1436 20<334.9 576.4 576.4 576.4>
VStem: 188 362
LayerCount: 2
Fore
SplineSet
200.6 -10.5 m 1
 221.5 226.3 l 1
 471.8 226.3 l 1
 450.9 -10.5 l 1
 200.6 -10.5 l 1
301.1 379.4 m 1
 334.9 1456 l 1
 576.4 1456 l 1
 420.8 379.4 l 1
 301.1 379.4 l 1
EndSplineSet
EndChar

StartChar: f
Encoding: 102 102 201
Width: 725
VWidth: 0
Flags: W
HStem: 0 21<239.382 239.382 239.382 442.882> 901 125 1341 148
VStem: 132 680
LayerCount: 2
Fore
SplineSet
239.382047982 0 m 1
 317.482047982 891.1 l 1
 131.982047982 891.1 l 1
 143.882047982 1026 l 1
 329.382047982 1026 l 1
 338.4 1123 l 1
 365.2 1393.6 440.182047982 1486.8 784.582047982 1487.5 c 2
 823.982047982 1487.5 l 1
 806.282047982 1329 l 1
 596.782047982 1329 558.9 1309.9 540.7 1116.8 c 1
 532.9 1026 l 1
 773.182047982 1026 l 1
 761.282047982 891.1 l 1
 520.982047982 891.1 l 1
 442.882047982 0 l 1
 239.382047982 0 l 1
EndSplineSet
EndChar

StartChar: f_j
Encoding: 65537 -1 202
Width: 1253
VWidth: 0
Flags: W
HStem: -390 149<714.5 784.5 702.5 859.5> 1334 148<777 799 799 799>
LayerCount: 2
Fore
SplineSet
428 0 m 1
 506 901 l 1
 980.542 901 l 1
 905.5 45 l 2
 888.5 -154 851.5 -241 717.5 -241 c 0
 687.5 -241 651.5 -239 610.5 -229 c 1
 581.5 -372 l 1
 640.5 -387 690.5 -390 738.5 -390 c 0
 980.5 -390 1071.5 -230 1092.5 8 c 2
 1181.5 1026 l 1
 517 1026 l 1
 526 1124 l 2
 542 1300 557 1332 755 1334 c 1
 799 1334 l 1
 812 1482 l 1
 777 1482 l 1
 415 1479 357 1373 334 1109 c 2
 327 1026 l 1
 143 1026 l 1
 132 901 l 1
 316 901 l 1
 238 0 l 1
 428 0 l 1
1198 1288 m 1
 1214 1462 l 1
 1036 1462 l 1
 1020 1288 l 1
 1198 1288 l 1
EndSplineSet
EndChar

StartChar: five
Encoding: 53 53 203
Width: 1237
VWidth: 0
Flags: W
HStem: -23 169 806 152 1287 169
VStem: 961 203
LayerCount: 2
Fore
SplineSet
1167 508.8 m 0
 1158.6 184.4 918.5 -23 616.6 -23 c 0
 455 -23 294.5 37.2 183.3 162.6 c 1
 301.9 312.8 l 1
 390 201.3 512.9 157.4 628.9 157.4 c 0
 816 157.4 945.1 297.6 950.2 500.2 c 0
 953.8 681.1 847.8 787.1 717.2 787.1 c 0
 630.1 787.1 545.2 752 493.7 661.5 c 1
 302.5 693.3 l 1
 380.4 1456 l 1
 1171.8 1456 l 1
 1156.6 1275.6 l 1
 556.4 1275.6 l 1
 495 854.6 l 1
 559 930.4 662.8 958 760.6 958 c 0
 1018.7 958 1174.2 764.4 1167 508.8 c 0
EndSplineSet
EndChar

StartChar: florin
Encoding: 402 402 204
Width: 1092
VWidth: 0
Flags: W
LayerCount: 2
Fore
SplineSet
194.7 -224.3 m 0
 178.9 -224.3 133.6 -220.6 87.8 -207.7 c 1
 108.3 -42.4 l 1
 121.6 -47.3 158.8 -55.2 192.7 -55.2 c 0
 267.9 -55.2 329.8 7.2 360.8 142.9 c 1
 524.7 828.2 l 1
 372 828.2 l 1
 391.7 983.3 l 1
 562 983.3 l 1
 594.5 1134.6 l 2
 628.2 1294 697.4 1478.2 948.4 1478.2 c 0
 1035.4 1478.2 1091.5 1452 1113.2 1446.4 c 1
 1095.4 1281.5 l 1
 1077.9 1288.5 1022 1302.5 969.5 1302.5 c 0
 884.3 1302.5 841.2 1252.6 818.4 1152.3 c 1
 777.6 983.3 l 1
 955.8 983.3 l 1
 935.4 828.2 l 1
 738.1 828.2 l 1
 586.1 180.5 l 1
 526.9 -77.1 424 -224.3 194.7 -224.3 c 0
EndSplineSet
EndChar

StartChar: four
Encoding: 52 52 205
Width: 1237
VWidth: 0
Flags: W
HStem: 0 21<741.3 741.3 741.3 955> 402 139 1436 20<832.7 1081.1 1081.1 1081.1>
LayerCount: 2
Fore
SplineSet
741.3 0 m 1
 775.6 399.3 l 1
 140 399.3 l 1
 152.3 537.9 l 1
 832.7 1456 l 1
 1081.1 1456 l 1
 1001.3 552.4 l 1
 1208.6 552.4 l 1
 1194 399.3 l 1
 989.3 399.3 l 1
 955 0 l 1
 741.3 0 l 1
349.8 552.4 m 1
 791.8 552.4 l 1
 859.4 1239.8 l 1
 747.7 1082.5 l 1
 349.8 552.4 l 1
EndSplineSet
EndChar

StartChar: fraction
Encoding: 8260 8260 206
Width: 1152
VWidth: 0
Flags: W
LayerCount: 2
Fore
SplineSet
33.5 0 m 1
 1057.2 1456 l 1
 1253.4 1456 l 1
 231.4 0 l 1
 33.5 0 l 1
EndSplineSet
EndChar

StartChar: g
Encoding: 103 103 207
Width: 1238
VWidth: 0
Flags: W
LayerCount: 2
Fore
SplineSet
138.864557081 495.5 m 1
 146.364557081 828.3 363.2 1051.3 674.3 1051.3 c 0
 816.3 1051.3 933.6 965.3 966.4 876.4 c 1
 982.464557081 1026 l 1
 1193.66455708 1026 l 1
 1193.66455708 1026 1167.26455708 865 1155.06455708 730 c 2
 1103 150.3 l 2
 1073 -178.7 933.2 -428.1 524.1 -428.1 c 0
 364.7 -428.1 232.5 -389.7 152.2 -345.8 c 1
 194.5 -167.4 l 1
 259.8 -207.4 370.7 -258.6 525.4 -258.6 c 0
 747.9 -258.6 875.4 -168.6 892.8 37.1 c 2
 904.164557081 177.2 l 1
 854.664557081 86.5 737 26.1 579.9 26.1 c 0
 314.7 26.1 130.764557081 208.5 138.864557081 495.5 c 1
685.4 886.5 m 0
 483.5 886.5 358.464557081 732.2 353.664557081 497.2 c 1
 348.264557081 305.7 428.9 184.8 611.2 184.8 c 0
 827.1 184.8 939.764557081 341.6 944.264557081 569 c 1
 949.364557081 756.7 860.3 886.5 685.4 886.5 c 0
EndSplineSet
EndChar

StartChar: germandbls
Encoding: 223 223 211
Width: 1284
VWidth: 0
Flags: W
LayerCount: 2
Fore
SplineSet
805.5 -23 m 0
 688.9 -23 567.2 30.5 483.1 150.2 c 1
 580.2 289.2 l 1
 658.2 187.6 745.7 141.4 815.1 141.4 c 0
 907.4 141.4 989.3 208.4 999.7 328.4 c 0
 1015.8 508 834.6 621.6 636.2 740.3 c 1
 664.2 889.1 l 1
 788 941.2 904.2 1045.1 914.9 1167.9 c 0
 923.6 1271.5 852.9 1334.2 742.1 1334.2 c 0
 582.4 1334.2 492.3 1180.1 478.2 1019.7 c 0
 454.8 751.4 416.4 264.1 393.3 0 c 1
 189.2 0 l 1
 280 1052.5 l 1
 304.6 1317.5 479.8 1495.6 756 1495.6 c 0
 1011.3 1495.6 1158.7 1352.2 1143.7 1176.9 c 0
 1130.6 1032.3 982.5 905.5 858.9 848.6 c 0
 833.9 836.8 810.7 826.9 791.1 817.6 c 1
 809.7 810.3 833.5 801.4 860.5 792.2 c 0
 1058 724 1249.9 587.3 1228.8 347.1 c 0
 1209.5 120.3 1005 -23 805.5 -23 c 0
EndSplineSet
EndChar

StartChar: grave
Encoding: 96 96 212
Width: 600
VWidth: 0
Flags: W
HStem: 1171 318
VStem: 95 469
LayerCount: 2
Fore
SplineSet
415.8 1170.1 m 1
 102.8 1487.2 l 1
 365.9 1487.2 l 1
 591.3 1170.1 l 1
 415.8 1170.1 l 1
EndSplineSet
EndChar

StartChar: greater
Encoding: 62 62 213
Width: 1329
VWidth: 0
Flags: W
LayerCount: 2
Fore
SplineSet
211.2 42.6 m 1
 228.4 233.5 l 1
 962.3 556.3 l 1
 291.2 902.6 l 1
 308.1 1089.9 l 1
 1233.6 600.1 l 1
 1224 494.4 l 1
 211.2 42.6 l 1
EndSplineSet
EndChar

StartChar: greaterequal
Encoding: 8805 8805 214
Width: 1350
VWidth: 0
Flags: W
LayerCount: 2
Fore
SplineSet
224.6 238.2 m 1
 240.8 417.1 l 1
 1011.7 701.2 l 1
 295.3 1018.1 l 1
 310.2 1191.8 l 1
 1236.4 747.7 l 1
 1228.1 652.3 l 1
 224.6 238.2 l 1
190.7 4.2 m 1
 203.6 155.7 l 1
 1193.4 155.7 l 1
 1179.8 4.2 l 1
 190.7 4.2 l 1
EndSplineSet
EndChar

StartChar: guillemotleft
Encoding: 171 171 215
Width: 1156
VWidth: 0
Flags: W
LayerCount: 2
Fore
SplineSet
413.3 164.9 m 1
 173.8 541 l 1
 485.3 918.2 l 1
 693.8 918.2 l 1
 390 540.7 l 1
 617.5 164.9 l 1
 413.3 164.9 l 1
810.9 164.9 m 1
 571.4 541 l 1
 882.9 918.2 l 1
 1088.1 918.2 l 1
 787.9 540.7 l 1
 1014.8 164.9 l 1
 810.9 164.9 l 1
EndSplineSet
EndChar

StartChar: guillemotright
Encoding: 187 187 216
Width: 1156
VWidth: 0
Flags: W
LayerCount: 2
Fore
SplineSet
117.9 164.9 m 1
 419.1 542 l 1
 191.2 918.2 l 1
 395.4 918.2 l 1
 636.9 542 l 1
 325.4 164.9 l 1
 117.9 164.9 l 1
547 164.9 m 1
 843.9 543.3 l 1
 621.3 918.2 l 1
 821.6 918.2 l 1
 1062.1 542 l 1
 749.9 164.9 l 1
 547 164.9 l 1
EndSplineSet
EndChar

StartChar: guilsinglleft
Encoding: 8249 8249 217
Width: 642
VWidth: 0
Flags: W
LayerCount: 2
Fore
SplineSet
346.6 164.9 m 1
 107.1 541 l 1
 417.3 918.2 l 1
 623.5 918.2 l 1
 323.6 540.7 l 1
 549.8 164.9 l 1
 346.6 164.9 l 1
EndSplineSet
EndChar

StartChar: guilsinglright
Encoding: 8250 8250 218
Width: 642
VWidth: 0
Flags: W
LayerCount: 2
Fore
SplineSet
107.5 164.9 m 1
 405.4 543.3 l 1
 183.1 918.2 l 1
 381.4 918.2 l 1
 623.6 542 l 1
 310.4 164.9 l 1
 107.5 164.9 l 1
EndSplineSet
EndChar

StartChar: h
Encoding: 104 104 219
Width: 1219
VWidth: 0
Flags: W
LayerCount: 2
Fore
SplineSet
153.6 0 m 1
 283 1476.3 l 1
 486.8 1476.3 l 1
 434.7 874.7 l 1
 512.7 994.2 651.2 1051.3 777.6 1051.3 c 0
 1058.7 1051.3 1131.9 828.1 1112.8 605.2 c 2
 1059.7 0 l 1
 854.9 0 l 1
 908 604.2 l 2
 924.3 794.1 871 886.5 728.8 886.5 c 0
 565.7 886.5 424.5 766.2 410.7 603.6 c 2
 358.1 0 l 1
 153.6 0 l 1
EndSplineSet
EndChar

StartChar: hbar
Encoding: 295 295 220
Width: 1199
VWidth: 0
Flags: W
LayerCount: 2
Fore
SplineSet
100.6 1188.9 m 1
 113.5 1334 l 1
 709.5 1334 l 1
 696.6 1188.9 l 1
 100.6 1188.9 l 1
EndSplineSet
Refer: 219 104 N 1 0 0 1 0 0 2
EndChar

StartChar: hungarumlaut
Encoding: 733 733 222
Width: 969
VWidth: 0
Flags: W
HStem: 1156 330
LayerCount: 2
Fore
SplineSet
234.8 1146.7 m 1
 472.4 1485.1 l 1
 699.1 1485.1 l 1
 381 1146.7 l 1
 234.8 1146.7 l 1
571.4 1146.7 m 1
 830.6 1485.1 l 1
 1066.3 1485.1 l 1
 722.5 1146.7 l 1
 571.4 1146.7 l 1
EndSplineSet
EndChar

StartChar: hyphen
Encoding: 45 45 223
Width: 738
VWidth: 0
Flags: W
LayerCount: 2
Fore
SplineSet
130.920942368 472 m 1
 144.820942368 633.4 l 1
 710.8 633.4 l 1
 696.9 472 l 1
 130.920942368 472 l 1
EndSplineSet
EndChar

StartChar: i
Encoding: 105 105 224
Width: 557
VWidth: 0
Flags: W
HStem: 0 21<177.478 177.478 177.478 377.778> 1006 20<267.478 467.778 467.778 467.778> 1282 174
VStem: 184 313
LayerCount: 2
Fore
SplineSet
177.478330445 0 m 1
 267.478330445 1026 l 1
 467.778330445 1026 l 1
 377.778330445 0 l 1
 177.478330445 0 l 1
292 1271.5 m 1
 308.9 1456 l 1
 503.6 1456 l 1
 487.4 1271.5 l 1
 292 1271.5 l 1
EndSplineSet
EndChar

StartChar: infinity
Encoding: 8734 8734 232
Width: 1724
VWidth: 0
Flags: W
LayerCount: 2
Fore
SplineSet
469 236 m 0
 253 236 120 409 138 612 c 0
 154 797 337 944 526 944 c 0
 689 944 808 844 911 692 c 1
 1035 840 1165 944 1333 944 c 0
 1552 944 1679 798 1661 595 c 0
 1642 382 1462 236 1269 236 c 0
 1121 236 1008 320 891 488 c 1
 764 341 629 236 469 236 c 0
482 355 m 0
 611 355 728 460 831 589 c 1
 751 724 653 829 514 829 c 0
 371 829 277 720 266 592 c 0
 255 471 339 355 482 355 c 0
1282 355 m 0
 1432 355 1511 470 1524 618 c 0
 1534 732 1451 829 1319 829 c 0
 1187 829 1063 714 969 592 c 1
 1074 437 1159 355 1282 355 c 0
EndSplineSet
EndChar

StartChar: integral
Encoding: 8747 8747 233
Width: 734
VWidth: 0
Flags: W
LayerCount: 2
Fore
SplineSet
130.4 -405.4 m 0
 76.3 -405.4 36.4 -395.8 -20.6 -382.2 c 1
 -7.1 -218.5 l 1
 33 -235.9 83.1 -240.9 116.3 -240.9 c 0
 227.9 -240.9 254.5 -173.6 265.2 -48.3 c 2
 382.1 1288.7 l 2
 401.1 1506.6 497 1668.2 725.3 1668.2 c 0
 773.6 1668.2 855.9 1650.9 877.6 1645.3 c 1
 864.1 1479.4 l 1
 821.1 1499.4 773.3 1503.4 740.7 1503.4 c 0
 626.5 1503.4 599.2 1436.4 588.5 1311.1 c 2
 472.3 -26.2 l 2
 453.3 -244.1 359.3 -405.4 130.4 -405.4 c 0
EndSplineSet
EndChar

StartChar: j
Encoding: 106 106 236
Width: 557
VWidth: 0
Flags: W
HStem: -390 149 1006 20<292.1 495.6 495.6 495.6> 1282 174
VStem: -117 630
LayerCount: 2
Fore
SplineSet
41.2 -389.1 m 0
 -6.8 -389.1 -55.9 -386.4 -114.9 -373.2 c 1
 -85.3 -222.4 l 1
 -46.7 -230.6 -13.1 -232.6 15.7 -232.6 c 0
 150 -232.6 189.4 -152.8 206.1 42.6 c 2
 292.1 1026 l 1
 495.6 1026 l 1
 406.9 9.8 l 2
 386.2 -225.5 299.4 -389.1 41.2 -389.1 c 0
313.2 1271.5 m 1
 330.1 1456 l 1
 528 1456 l 1
 511.8 1271.5 l 1
 313.2 1271.5 l 1
EndSplineSet
EndChar

StartChar: k
Encoding: 107 107 238
Width: 1093
VWidth: 0
Flags: W
HStem: 0 21<154.3 154.3 154.3 358.5 815.2 815.2 815.2 1081.4> 1006 20<862.1 1140.4 1140.4 1140.4> 1462 20
LayerCount: 2
Fore
SplineSet
154.3 0 m 1
 283.7 1476.3 l 1
 487.2 1476.3 l 1
 411.1 602.4 l 1
 862.1 1026 l 1
 1140.4 1026 l 1
 596 544.9 l 1
 672.3 464.4 1005.1 80.5 1081.4 0 c 1
 815.2 0 l 1
 399.6 485.9 l 1
 358.5 0 l 1
 154.3 0 l 1
EndSplineSet
EndChar

StartChar: kgreenlandic
Encoding: 312 312 240
Width: 1093
VWidth: 0
Flags: W
LayerCount: 2
Fore
SplineSet
151 0 m 1
 241 1026 l 1
 444.5 1026 l 1
 406.4 590.7 l 1
 858.2 1026 l 1
 1136.5 1026 l 1
 570.5 510.4 l 1
 647.5 434.1 1005.9 76.3 1082.9 0 c 1
 811.9 0 l 1
 392.3 431.2 l 1
 354.5 0 l 1
 151 0 l 1
EndSplineSet
EndChar

StartChar: l
Encoding: 108 108 241
Width: 524
VWidth: 0
Flags: W
HStem: 0 21<167.6 167.6 167.6 370.8> 1462 20
VStem: 170 319
LayerCount: 2
Fore
SplineSet
167.6 0 m 1
 296.3 1476.3 l 1
 499.5 1476.3 l 1
 370.8 0 l 1
 167.6 0 l 1
EndSplineSet
EndChar

StartChar: less
Encoding: 60 60 246
Width: 1329
VWidth: 0
Flags: W
LayerCount: 2
Fore
SplineSet
1108.7 38.4 m 1
 183.9 516 l 1
 192.2 617.2 l 1
 1206 1083.8 l 1
 1189.1 894.8 l 1
 448.4 564 l 1
 1125.6 224.1 l 1
 1108.7 38.4 l 1
EndSplineSet
EndChar

StartChar: lessequal
Encoding: 8804 8804 247
Width: 1351
VWidth: 0
Flags: W
LayerCount: 2
Fore
SplineSet
1138.6 237.5 m 1
 209.4 650.9 l 1
 217 747 l 1
 1222.1 1191.1 l 1
 1207.2 1017.4 l 1
 436.5 702.6 l 1
 1154.8 416.4 l 1
 1138.6 237.5 l 1
135.9 4.2 m 1
 149.5 155.7 l 1
 1144.9 155.7 l 1
 1131.3 4.2 l 1
 135.9 4.2 l 1
EndSplineSet
EndChar

StartChar: logicalnot
Encoding: 172 172 248
Width: 1458
VWidth: 0
Flags: W
LayerCount: 2
Fore
SplineSet
1080.1 230 m 1
 1115.8 635.6 l 1
 248.6 635.6 l 1
 263.5 805.7 l 1
 1319.5 805.7 l 1
 1269.6 230 l 1
 1080.1 230 l 1
EndSplineSet
EndChar

StartChar: lozenge
Encoding: 9674 9674 250
Width: 1248
VWidth: 0
Flags: W
LayerCount: 2
Fore
SplineSet
624.8 159 m 1
 998.5 704.9 l 1
 728 1244.1 l 1
 354.6 705.6 l 1
 624.8 159 l 1
540.2 -42.1 m 1
 160.7 704.9 l 1
 678.3 1454.6 l 1
 811.6 1454.6 l 1
 1194.1 705.9 l 1
 672.5 -42.1 l 1
 540.2 -42.1 l 1
EndSplineSet
EndChar

StartChar: lslash
Encoding: 322 322 251
Width: 519
VWidth: 0
Flags: W
LayerCount: 2
Fore
SplineSet
60.6 607 m 1
 77.4 782.5 l 1
 624.1 1120.7 l 1
 607 943.6 l 1
 60.6 607 l 1
EndSplineSet
Refer: 241 108 N 1 0 0 1 0 0 2
EndChar

StartChar: m
Encoding: 109 109 252
Width: 1864
VWidth: 0
Flags: W
HStem: 0 21<166.329 166.329 166.329 370.129 841.029 841.029 841.029 1044.83 1506.13 1506.13 1506.13 1709.93> 897 154 1006 20<244.229 457.529 457.529 457.529>
VStem: 247 198
LayerCount: 2
Fore
SplineSet
166.329010633 0 m 1
 230.429010633 730.2 l 2
 241.629010633 858.9 242.829010633 991.7 244.229010633 1026 c 1
 457.529010633 1026 l 1
 436.329010633 841.4 l 1
 500.629010633 961.5 650.929010633 1051.3 794.229010633 1051.3 c 0
 931.629010633 1051.3 1036.12901063 975.6 1069.32901063 833.5 c 1
 1149.52901063 971.8 1305.82901063 1052.7 1461.12901063 1051.3 c 0
 1683.12901063 1049.2 1789.02901063 889.2 1765.62901063 624.8 c 2
 1709.92901063 0 l 1
 1506.12901063 0 l 1
 1554.82901063 555.1 l 2
 1569.02901063 718 1568.7 886.5 1392.5 886.5 c 0
 1229.2 886.5 1110.62901063 750.5 1095.82901063 584.1 c 2
 1044.82901063 0 l 1
 841.029010633 0 l 1
 896.029010633 630.8 l 2
 907.829010633 764 879.1 886.5 735.8 886.5 c 0
 581.4 886.5 435.829010633 758.3 422.029010633 598.3 c 2
 370.129010633 0 l 1
 166.329010633 0 l 1
EndSplineSet
EndChar

StartChar: macron
Encoding: 175 175 253
Width: 728
VWidth: 0
Flags: W
HStem: 1188 147
VStem: 172 600
LayerCount: 2
Fore
SplineSet
170.2 1190.4 m 1
 182.8 1344.6 l 1
 779.5 1344.6 l 1
 766.9 1190.4 l 1
 170.2 1190.4 l 1
EndSplineSet
EndChar

StartChar: middot
Encoding: 183 183 254
Width: 444
VWidth: 0
Flags: W
HStem: 513 210<146.813 382.187 165.187 363.813>
VStem: 147 235
LayerCount: 2
Fore
SplineSet
146.813 513 m 1
 165.187 723 l 1
 382.187 723 l 1
 363.813 513 l 1
 146.813 513 l 1
EndSplineSet
EndChar

StartChar: minus
Encoding: 8722 8722 255
Width: 1350
VWidth: 0
Flags: W
LayerCount: 2
Fore
SplineSet
199.6 396.2 m 1
 214.2 563.7 l 1
 1201.1 563.7 l 1
 1186.5 396.2 l 1
 199.6 396.2 l 1
EndSplineSet
EndChar

StartChar: multiply
Encoding: 215 215 256
Width: 1243
VWidth: 0
Flags: W
LayerCount: 2
Fore
SplineSet
365.3 136 m 1
 246.3 266.6 l 1
 554.5 550.8 l 1
 295.7 834.3 l 1
 437.9 964.9 l 1
 696.7 681.4 l 1
 1005.2 964.9 l 1
 1124.6 834.6 l 1
 815.4 550.8 l 1
 1075.2 267 l 1
 933.3 136 l 1
 674.2 419.5 l 1
 365.3 136 l 1
EndSplineSet
EndChar

StartChar: n
Encoding: 110 110 257
Width: 1225
VWidth: 0
Flags: W
HStem: 0 21<166.629 166.629 166.629 371.129 869.1 869.1 869.1 1073.6> 897 154 1006 20<244.229 450.5 450.5 450.5>
VStem: 247 193
LayerCount: 2
Fore
SplineSet
166.629010633 0 m 1
 228.529010633 711.3 l 2
 244.329010633 891.4 244.229010633 1026 244.229010633 1026 c 1
 450.5 1026 l 1
 436.329010633 840.4 l 1
 505.029010633 967.1 644 1051.3 803.6 1051.3 c 0
 1057 1051.3 1152.1 890.2 1123.2 566.7 c 2
 1073.6 0 l 1
 869.1 0 l 1
 918.3 564.7 l 2
 936 769.1 916.8 886.5 736.3 886.5 c 0
 588 886.5 436.729010633 754.9 424.429010633 619.3 c 2
 371.129010633 0 l 1
 166.629010633 0 l 1
EndSplineSet
EndChar

StartChar: nine
Encoding: 57 57 262
Width: 1237
VWidth: 0
Flags: W
HStem: -24 170 536 164 1313 170
LayerCount: 2
Fore
SplineSet
565 -24.3 m 0
 452.3 -24.3 329 9.8 200.2 77.1 c 1
 288.8 244.4 l 1
 382.7 187.3 476.8 157.7 564.4 157.7 c 0
 763.8 157.7 926.9 312.5 956.3 643.5 c 1
 959 690.2 l 1
 883.1 575.9 766.3 531.5 633.1 531.5 c 0
 355.2 531.5 200.3 723.1 224.3 997.9 c 0
 248.3 1273.1 450.2 1483 750.1 1483 c 0
 1070.4 1483 1223 1229.4 1183 772.4 c 0
 1137.5 250.8 887.1 -24.3 565 -24.3 c 0
440.8 1003.6 m 0
 426.1 835.7 491 706.6 673 706.6 c 0
 834.6 706.6 962.1 813 978.4 1002.9 c 0
 991.8 1158.3 913.6 1301.9 735.2 1301.9 c 0
 567.9 1301.9 455.5 1177.4 440.8 1003.6 c 0
EndSplineSet
EndChar

StartChar: notequal
Encoding: 8800 8800 263
Width: 1351
VWidth: 0
Flags: W
LayerCount: 2
Fore
SplineSet
478.2 41.2 m 1
 317.1 65.3 l 1
 458.1 313.1 l 1
 187.9 313.1 l 1
 177.4 465.2 l 1
 549.4 465.2 l 1
 693.8 702 l 1
 223.6 702 l 1
 211.4 855.1 l 1
 779.7 855.1 l 1
 934.6 1122.7 l 1
 1100.3 1098.9 l 1
 958 855.1 l 1
 1246.2 855.1 l 1
 1257.1 702 l 1
 871.7 702 l 1
 725 465.2 l 1
 1212.2 465.2 l 1
 1222.7 313.1 l 1
 637.4 313.1 l 1
 478.2 41.2 l 1
EndSplineSet
EndChar

StartChar: numbersign
Encoding: 35 35 265
Width: 1278
VWidth: 0
Flags: W
LayerCount: 2
Fore
SplineSet
233.3 92.1 m 1
 351.1 503 l 1
 103.9 503 l 1
 127.2 644.4 l 1
 388 644.4 l 1
 398.5 686.4 452.1 865.5 463.3 907.5 c 1
 206.8 907.5 l 1
 231.1 1045 l 1
 496.3 1045 l 1
 611.3 1439.9 l 1
 774.9 1439.9 l 1
 666.8 1045 l 1
 892.8 1045 l 1
 1002.2 1439.9 l 1
 1168.1 1439.9 l 1
 1058 1045 l 1
 1298 1045 l 1
 1273 907.5 l 1
 1019.8 907.5 l 1
 945.1 644.4 l 1
 1197.1 644.4 l 1
 1174.4 503 l 1
 911.5 503 l 1
 795 92.1 l 1
 629.8 92.1 l 1
 742 503 l 1
 515.3 503 l 1
 402.1 92.1 l 1
 233.3 92.1 l 1
552.2 644.4 m 1
 779.9 644.4 l 1
 854.6 907.5 l 1
 627.9 907.5 l 1
 552.2 644.4 l 1
EndSplineSet
EndChar

StartChar: o
Encoding: 111 111 266
Width: 1254
VWidth: 0
Flags: W
HStem: -23 153 897 154
LayerCount: 2
Fore
SplineSet
643.1 141.4 m 0
 851.3 141.4 969.964505317 299.3 988.764505317 512.9 c 0
 1007.86450532 730.1 911.6 886.5 705.9 886.5 c 0
 499.5 886.5 374.464505317 730.8 355.364505317 512.2 c 0
 336.564505317 298.6 432.1 141.4 643.1 141.4 c 0
626.3 -22.7 m 0
 303.1 -22.7 114.464505317 204.5 141.564505317 512.3 c 0
 168.964505317 822.5 392.1 1051.3 724.5 1051.3 c 0
 1057.6 1051.3 1229.96450532 823.1 1202.56450532 511.7 c 0
 1175.46450532 206.1 957.9 -22.7 626.3 -22.7 c 0
EndSplineSet
EndChar

StartChar: oe
Encoding: 339 339 271
Width: 1985
VWidth: 0
Flags: W
LayerCount: 2
Fore
SplineSet
610.7 -29.9 m 0
 835 -29.9 965.6 89.7 1022.1 212.3 c 1
 1070.8 73.7 1225.8 -22.3 1403.9 -22.3 c 0
 1647.9 -22.3 1801.7 87.8 1832.4 110.5 c 1
 1785.6 267.5 l 1
 1746.2 237.1 1606.7 141.4 1428.5 141.4 c 0
 1254.2 141.4 1135.4 253.4 1135.5 431.4 c 0
 1135.5 434.6 1135.9 480.1 1135.9 484.3 c 1
 1891.5 484.3 l 1
 1896.5 513.1 l 1
 1924.8 837.5 1779.4 1051.3 1485.4 1051.3 c 0
 1299.2 1051.3 1142.9 949.4 1069.1 807.7 c 1
 1026.9 922.4 921.5 1054.3 706.7 1054.3 c 0
 367.5 1054.3 156.1 811 130.1 515.9 c 0
 104.1 219.2 293 -29.9 610.7 -29.9 c 0
631.4 141.1 m 0
 411.2 141.1 325.8 314.3 343.2 513.6 c 0
 360.6 714.9 482.9 886.2 687.1 886.2 c 0
 896.3 886.2 971.6 723 953.2 511 c 0
 935.8 314.7 832 141.1 631.4 141.1 c 0
1155.5 624.1 m 1
 1187.9 774.5 1319.8 890.7 1475.2 890.7 c 0
 1634.4 890.7 1715.7 783.7 1716.1 638.7 c 0
 1715.4 634.5 1716.1 628.3 1715.4 624.1 c 1
 1155.5 624.1 l 1
EndSplineSet
EndChar

StartChar: ogonek
Encoding: 731 731 272
Width: 508
VWidth: 0
Flags: W
LayerCount: 2
Fore
SplineSet
329.8 20.7 m 1
 295 -11.1 359 -48.5 359 -67.7 c 1
 301.5405 -118.1621 238.2177 -225.986 258.9177 -288.9916 c 1
 270.9177 -318.9558 301.7287 -338.069 358.2322 -336.569 c 0
 394.1506 -336.569 432.0459 -366.8653 457.5 -358.2 c 1
 438.9 -363.6 412.9 -451 395.8 -451 c 1
 313.3731 -463.6987 232.975 -453.2163 189.9173 -422.0163 c 1
 76.8491 -374.6163 85.5523711764 -294.855147059 115.19943 -224.4834 c 1
 115.19943 -136.1399 253.605 -15.54838 329.8 20.7 c 1
EndSplineSet
EndChar

StartChar: one
Encoding: 49 49 276
Width: 1237
VWidth: 0
Flags: W
HStem: 0 161 1446 20
LayerCount: 2
Fore
SplineSet
311.4 0 m 1
 326.3 170.3 l 1
 577.6 170.3 l 1
 670.5 1227.8 l 1
 588.1 1185.8 501.2 1147.6 389.4 1105.7 c 1
 406.3 1296.7 l 1
 513.2 1334.6 634.7 1397.8 728.4 1449.9 c 1
 907 1471.1 l 1
 792.6 168.7 l 1
 1034.7 168.7 l 1
 1019.8 0 l 1
 311.4 0 l 1
EndSplineSet
EndChar

StartChar: onehalf
Encoding: 189 189 277
Width: 2253
VWidth: 0
Flags: W
LayerCount: 2
Fore
SplineSet
359.1 594.8 m 1
 372 746.2 l 1
 489.2 746.2 l 1
 531.1 1223.6 l 1
 489.3 1203.8 427.1 1180.1 378.2 1163 c 1
 393.4 1331.2 l 1
 476 1357.4 530.7 1385.1 575.8 1410.2 c 1
 706.2 1428.4 l 1
 646.1 744.2 l 1
 764.6 744.2 l 1
 751.7 594.8 l 1
 359.1 594.8 l 1
1394.2 0 m 1
 1406.8 138.6 l 1
 1726.9 390.5 1847.5 514.3 1855.6 599 c 0
 1861.6 664.7 1815.5 699.1 1741 699.1 c 0
 1665.4 699.1 1581.6 658.7 1518 597.3 c 1
 1454.8 713.8 l 1
 1534.5 796.1 1648.9 843.4 1763.4 843.4 c 0
 1917.9 843.4 2034.5 761.2 2020.9 601 c 0
 2006.2 434.8 1837.7 298.1 1640.5 150.4 c 1
 1975.3 150.4 l 1
 1961.4 0 l 1
 1394.2 0 l 1
541.3 0 m 1
 1562.4 1430 l 1
 1758.6 1430 l 1
 738.5 0 l 1
 541.3 0 l 1
EndSplineSet
EndChar

StartChar: onequarter
Encoding: 188 188 278
Width: 2101
VWidth: 0
Flags: W
LayerCount: 2
Fore
SplineSet
1652.1 16.1 m 1
 1668.8 196.7 l 1
 1303.6 196.7 l 1
 1313.2 308.6 l 1
 1720.7 820.5 l 1
 1882.3 820.5 l 1
 1839.6 326.5 l 1
 1950.8 326.5 l 1
 1944.1 196.7 l 1
 1826 196.7 l 1
 1810 16.1 l 1
 1652.1 16.1 l 1
1492.4 326.5 m 1
 1677.7 326.5 l 1
 1701.9 602.4 l 1
 1639.43333333 520.233333333 1569.6 428.266666667 1492.4 326.5 c 1
528.5 0 m 1
 1549.6 1430 l 1
 1745.8 1430 l 1
 725.7 0 l 1
 528.5 0 l 1
324.2 594.8 m 1
 336.4 746.2 l 1
 453.6 746.2 l 1
 495.5 1223.6 l 1
 453.7 1203.8 391.5 1180.1 342.6 1163 c 1
 357.8 1331.2 l 1
 440.4 1357.4 495.1 1385.1 540.2 1410.2 c 1
 670.6 1428.4 l 1
 611.2 744.2 l 1
 729 744.2 l 1
 716.8 594.8 l 1
 324.2 594.8 l 1
EndSplineSet
EndChar

StartChar: ordfeminine
Encoding: 170 170 279
Width: 828
VWidth: 0
Flags: W
LayerCount: 2
Fore
SplineSet
414.8 757.4 m 0
 528.3 757.4 608.8 804.1 660.9 922.2 c 1
 661.1 782.8 l 1
 813.6 782.8 l 1
 813.406621259 836.495422065 813.539289146 861.67317052 817.751288134 927.537699913 c 0
 819.615759427 960.027063675 836.994740957 1150.9163466 843.1 1221.5 c 0
 859.7 1415.4 734.3 1478.9 579.8 1478.9 c 0
 438 1478.9 324.3 1439.2 281.3 1414.8 c 1
 321.8 1293.8 l 1
 361.6 1308.9 460.7 1346.2 555.5 1346.2 c 0
 646.6 1346.2 690.9 1308.6 680.8 1205.5 c 0
 680.5 1202.3 678.1 1186.9 677.8 1182.7 c 1
 665.473098446 1182.5505133 605.790941797 1181.58853515 594.651365833 1181.21439019 c 0
 305.336926958 1172.13251965 205.022381841 1085.85400306 193.7 956.7 c 0
 182.4 824.6 281.7 757.4 414.8 757.4 c 0
455 868.9 m 0
 385.9 868.9 355.8 900.8 360.5 956.8 c 0
 370.2 1073.6 523.8 1078.7 669.6 1082.9 c 1
 669.479495415 1081.37253518 667.937692842 1070.04786707 667.775358489 1068.52643926 c 0
 650.675644767 963.073306786 558.157308879 868.9 455 868.9 c 0
EndSplineSet
EndChar

StartChar: ordmasculine
Encoding: 186 186 280
Width: 882
VWidth: 0
Flags: W
LayerCount: 2
Fore
SplineSet
529.2 879.8 m 0
 651.6 879.8 727.8 980.9 737.5 1097.8 c 0
 748.2 1222 690.5 1321.5 567 1321.5 c 0
 445.9 1321.5 367.8 1220.4 357.4 1101.5 c 0
 346.7 978.6 400.4 879.8 529.2 879.8 c 0
518.6 741 m 0
 271.9 741 157 897.6 175 1102.8 c 0
 192.3 1302.7 342.8 1460.3 579.6 1460.3 c 0
 818.4 1460.3 934.8 1300.1 917.5 1099.5 c 0
 900.5 903.6 755.7 741 518.6 741 c 0
EndSplineSet
EndChar

StartChar: oslash
Encoding: 248 248 281
Width: 1256
VWidth: 0
Flags: W
LayerCount: 2
Fore
SplineSet
354.9 -221.9 m 1
 262.9 -176.1 l 1
 1023.2 1253.5 l 1
 1116.6 1207.7 l 1
 354.9 -221.9 l 1
EndSplineSet
Refer: 266 111 N 1 0 0 1 0 0 2
EndChar

StartChar: p
Encoding: 112 112 283
Width: 1256
VWidth: 0
Flags: W
HStem: -417 21 -23 153 897 154 1006 20<248.429 461.329 461.329 461.329>
VStem: 253 197
LayerCount: 2
Fore
SplineSet
135.529010633 -411.9 m 1
 235.029010633 721.4 l 2
 241.929010633 802.1 245.729010633 922.5 248.429010633 1026 c 1
 461.329010633 1026 l 1
 449.029010633 858.3 l 1
 496.129010633 962.9 639.029010633 1050.6 799.029010633 1051.3 c 0
 1079.72901063 1052 1235.42901063 826.5 1209.02901063 525.7 c 0
 1181.92901063 216.9 987.129010633 -22.7 697.929010633 -22.7 c 0
 540.529010633 -22.7 411.429010633 71.7 387.129010633 159.7 c 1
 337.029010633 -411.9 l 1
 135.529010633 -411.9 l 1
674.829010633 141.4 m 0
 865.529010633 141.4 976.429010633 297.9 995.229010633 514.3 c 0
 1014.32901063 729.4 931.029010633 886.5 742.829010633 886.5 c 0
 551.129010633 886.5 431.429010633 732.9 411.629010633 505.9 c 0
 393.529010633 297.2 482.029010633 141.4 674.829010633 141.4 c 0
EndSplineSet
EndChar

StartChar: paragraph
Encoding: 182 182 284
Width: 1214
VWidth: 0
Flags: W
LayerCount: 2
Fore
SplineSet
440.1 -123.1 m 1
 518.9 780.1 l 1
 346.9 790.5 191.1 927.1 209.1 1130.2 c 0
 231.4 1386 478 1456 755.3 1456 c 2
 1191.4 1456 l 1
 1177.5 1299.9 l 1
 1070.6 1299.9 l 1
 946.4 -123.1 l 1
 783.7 -123.1 l 1
 907.9 1299.9 l 1
 740 1299.9 l 1
 616.5 -123.1 l 1
 440.1 -123.1 l 1
EndSplineSet
EndChar

StartChar: parenleft
Encoding: 40 40 285
Width: 636
VWidth: 0
Flags: W
LayerCount: 2
Fore
SplineSet
385.3 -180.6 m 1
 248.4 59.6 150.1 357.5 175.8 654.5 c 0
 203.5 965.8 337.8 1242.3 527.5 1506 c 1
 720.4 1506 l 1
 527.2 1238.1 404.6 944.7 378.9 654.6 c 0
 355.2 385.2 436.3 74.6 573 -180.6 c 1
 385.3 -180.6 l 1
EndSplineSet
EndChar

StartChar: parenright
Encoding: 41 41 286
Width: 634
VWidth: 0
Flags: W
LayerCount: 2
Fore
SplineSet
32.8 -180.6 m 1
 207.7 66.3 342.7 362.4 369.4 672.8 c 0
 391.1 926 322.5 1238.8 175.6 1506 c 1
 365.6 1506 l 1
 504.2 1260.7 596.6 960.3 570.9 663.9 c 0
 543.2 348 410.1 74.8 229 -180.6 c 1
 32.8 -180.6 l 1
EndSplineSet
EndChar

StartChar: partialdiff
Encoding: 8706 8706 287
Width: 1167
VWidth: 0
Flags: W
LayerCount: 2
Fore
SplineSet
496.3 -24 m 0
 891.6 -24 1117.6 411.9 1155.3 838.5 c 0
 1196.3 1305.9 1026.4 1515 720.6 1515 c 0
 603.3 1515 482.2 1476.4 392.7 1417.6 c 1
 389.8 1239.2 l 1
 485.9 1300.2 599.9 1351.2 686.9 1351.2 c 0
 867.4 1351.2 968.8 1194.5 951.4 939.9 c 0
 950.7 923.3 949 901.5 947.3 887 c 1
 863.2 972.7 776 1002 680.3 1002 c 0
 397.1 1002 144.7 749 116 424.2 c 0
 94 171.3 219.9 -24 496.3 -24 c 0
512.6 143.1 m 0
 381.9 143.1 309.4 253.2 323.8 420.2 c 0
 343.2 644.9 501.5 839.5 683.9 839.5 c 0
 799.1 839.5 886.6 770.3 915.9 694.5 c 1
 863.9 345.1 693 143.1 512.6 143.1 c 0
EndSplineSet
EndChar

StartChar: percent
Encoding: 37 37 288
Width: 1850
VWidth: 0
Flags: W
LayerCount: 2
Fore
SplineSet
544.5 848.6 m 0
 420.1 848.6 379.6 958 391.3 1093.4 c 0
 402 1220.2 458.7 1340.6 588 1340.6 c 0
 715.9 1340.6 752.6 1225.8 741.2 1095.5 c 0
 729.5 962.9 668.9 848.6 544.5 848.6 c 0
531.5 715.4 m 0
 753.4 715.4 897.3 880.9 916.3 1094.8 c 0
 935 1308 825.3 1473.8 600.3 1473.8 c 0
 377.4 1473.8 234.2 1305.2 215.5 1093.4 c 0
 196.5 878.8 308.2 715.4 531.5 715.4 c 0
402.077692154 0 m 1
 573.677692154 0 l 1
 1570.97769215 1456 l 1
 1398.37769215 1456 l 1
 402.077692154 0 l 1
1395.87769215 109.1 m 0
 1271.47769215 109.1 1230.27769215 218.5 1241.97769215 353.2 c 0
 1252.67769215 480 1310.07769215 601.8 1440.07769215 601.8 c 0
 1567.97769215 601.8 1603.27769215 487 1591.87769215 356.7 c 0
 1580.17769215 224.1 1520.97769215 109.1 1395.87769215 109.1 c 0
1382.87769215 -24.1 m 0
 1604.77769215 -24.1 1747.97769215 142.1 1766.97769215 356 c 0
 1785.67769215 569.2 1676.67769215 735 1451.67769215 735 c 0
 1228.77769215 735 1085.57769215 565.7 1066.87769215 353.9 c 0
 1047.87769215 140 1160.27769215 -24.1 1382.87769215 -24.1 c 0
EndSplineSet
EndChar

StartChar: period
Encoding: 46 46 289
Width: 542
VWidth: 0
Flags: W
LayerCount: 2
Fore
SplineSet
144.8 0 m 1
 164.7 238.9 l 1
 415.7 238.9 l 1
 395.8 0 l 1
 144.8 0 l 1
EndSplineSet
EndChar

StartChar: periodcentered
Encoding: 183 183 290
Width: 444
VWidth: 0
Flags: W
LayerCount: 2
Fore
SplineSet
146 531.6 m 1
 165.9 770.5 l 1
 417.6 770.5 l 1
 397 531.6 l 1
 146 531.6 l 1
EndSplineSet
EndChar

StartChar: perthousand
Encoding: 8240 8240 291
Width: 2478
VWidth: 0
Flags: W
LayerCount: 2
Fore
SplineSet
483.6 828.3 m 0
 601 828.3 667.2 933.5 678.2 1061.2 c 0
 688.9 1186.6 645.2 1296.5 522.9 1296.5 c 0
 401.3 1296.5 337.6 1185.2 326.9 1062.6 c 0
 315.2 932.1 364.1 828.3 483.6 828.3 c 0
469.9 694.4 m 0
 250.1 694.4 131.4 848 150.4 1062.6 c 0
 168.4 1268.8 313 1429 534.5 1429 c 0
 756.7 1429 872.7 1274.4 854 1061.2 c 0
 835.7 852.2 689.7 694.4 469.9 694.4 c 0
273.2 -9.1 m 1
 1320.6 1423.8 l 1
 1494.6 1423.8 l 1
 449 -9.1 l 1
 273.2 -9.1 l 1
1243 109.1 m 0
 1361.1 109.1 1428 215 1439 342.7 c 0
 1449.7 468.1 1406.7 576.6 1283.7 576.6 c 0
 1161.4 576.6 1097.7 466 1087 343.4 c 0
 1075.3 212.2 1124.9 109.1 1243 109.1 c 0
1230.7 -24.1 m 0
 1010.9 -24.1 892.2 128.8 911.2 343.4 c 0
 929.2 549.6 1073.8 710.5 1296 710.5 c 0
 1518.2 710.5 1632.8 553.8 1614.1 342 c 0
 1595.8 133 1450.5 -24.1 1230.7 -24.1 c 0
2050.6 109.1 m 0
 2168.7 109.1 2235.6 215 2246.6 342.7 c 0
 2257.3 467.4 2212.2 576.6 2090.6 576.6 c 0
 1968.3 576.6 1905.3 466 1894.6 343.4 c 0
 1882.9 212.2 1932.5 109.1 2050.6 109.1 c 0
2037.6 -24.1 m 0
 1818.5 -24.1 1699.8 128.8 1718.8 343.4 c 0
 1736.8 549.6 1881.4 710.5 2103.6 710.5 c 0
 2324.4 710.5 2440.4 555.9 2421.7 342 c 0
 2403.4 133 2258.1 -24.1 2037.6 -24.1 c 0
EndSplineSet
EndChar

StartChar: pi
Encoding: 960 960 292
Width: 1288
VWidth: 0
Flags: W
LayerCount: 2
Fore
SplineSet
1015 -8 m 0
 859 -8 812 73 830 279 c 2
 885 907 l 1
 514 907 l 1
 514 907 404 169 296 0 c 1
 127 0 l 1
 242 177 311 616 345 907 c 1
 225 904 140 885 63 846 c 1
 57 977 l 1
 129 1029 235 1040 415 1040 c 2
 1260 1040 l 1
 1248 907 l 1
 1044 907 l 1
 990 288 l 2
 985 228 979 147 1076 147 c 0
 1097 147 1124 151 1157 160 c 1
 1154 140 1151 120 1149 100 c 0
 1146 69 1146 38 1153 6 c 1
 1100 -3 1054 -8 1015 -8 c 0
EndSplineSet
EndChar

StartChar: plus
Encoding: 43 43 293
Width: 1223
VWidth: 0
Flags: W
LayerCount: 2
Fore
SplineSet
531.115955972 99.7 m 1
 567.215955972 507.9 l 1
 176.015955972 507.9 l 1
 190.515955972 679 l 1
 583.715955972 679 l 1
 620.515955972 1087.6 l 1
 809.015955972 1087.6 l 1
 772.915955972 679 l 1
 1165.81595597 679 l 1
 1150.61595597 507.9 l 1
 757.415955972 507.9 l 1
 720.615955972 99.7 l 1
 531.115955972 99.7 l 1
EndSplineSet
EndChar

StartChar: plusminus
Encoding: 177 177 294
Width: 1243
VWidth: 0
Flags: W
LayerCount: 2
Fore
SplineSet
552.6 237.1 m 1
 581.7 573.8 l 1
 227.4 573.8 l 1
 242.3 742 l 1
 593 742 l 1
 622.1 1082.3 l 1
 812.5 1082.3 l 1
 783.4 742 l 1
 1138.1 742 l 1
 1123.2 573.8 l 1
 775.4 573.8 l 1
 745.6 237.1 l 1
 552.6 237.1 l 1
181.6 0 m 1
 195.2 156.6 l 1
 1092 156.6 l 1
 1078.4 0 l 1
 181.6 0 l 1
EndSplineSet
EndChar

StartChar: product
Encoding: 8719 8719 295
Width: 1568
VWidth: 0
Flags: W
LayerCount: 2
Fore
SplineSet
218.5 -269.7 m 1
 355 1284.7 l 1
 178 1284.7 l 1
 196.2 1456 l 1
 1616 1456 l 1
 1600.3 1284.7 l 1
 1445.1 1284.7 l 1
 1308.6 -269.7 l 1
 1082.5 -269.7 l 1
 1219 1284.7 l 1
 576.2 1284.7 l 1
 439.7 -269.7 l 1
 218.5 -269.7 l 1
EndSplineSet
EndChar

StartChar: q
Encoding: 113 113 296
Width: 1245
VWidth: 0
Flags: W
LayerCount: 2
Fore
SplineSet
849.2 -411.9 m 1
 899.7 158.1 l 1
 869.8 81.9 747 -26.9 564.5 -21.4 c 0
 269.8 -13.2 117 217.6 142.7 516.6 c 0
 169.1 823.7 370.8 1051.3 673.7 1051.3 c 0
 841.6 1051.3 929.4 950.6 964.8 890.4 c 1
 978.3 1026 l 1
 1185.7 1026 l 1
 1178.4 975.3 1165 874.9 1155.6 773.5 c 2
 1051.4 -411.9 l 1
 849.2 -411.9 l 1
612.1 141.4 m 0
 804.9 141.4 919.2 304.9 938 527.6 c 0
 956.4 736.4 869 886.5 682.2 886.5 c 0
 491.2 886.5 375.6 730.1 356.5 511.5 c 0
 338.4 299.3 420.7 141.4 612.1 141.4 c 0
EndSplineSet
EndChar

StartChar: question
Encoding: 63 63 297
Width: 1049
VWidth: 0
Flags: W
LayerCount: 2
Fore
SplineSet
374.9 381.8 m 1
 560 381.8 l 1
 561.3 392.7 567.2 468.4 568.5 477.7 c 0
 594.983547349 772.519020843 990.784269439 835.017787672 1016 1128.5 c 0
 1036.3 1365.6 861.5 1481.2 622.9 1481.2 c 0
 526.4 1481.2 413.1 1459.7 302.2 1411.4 c 1
 287 1228.8 l 1
 383.2 1275.4 488 1303.9 581.3 1303.9 c 0
 712.6 1303.9 818.3 1252.2 806.9 1120.8 c 0
 787.5 901 407 789.4 384.7 537.4 c 0
 382.6 512.9 374.9 381.8 374.9 381.8 c 1
314.9 -4.9 m 1
 565.9 -4.9 l 1
 586.8 234 l 1
 335.8 234 l 1
 314.9 -4.9 l 1
EndSplineSet
EndChar

StartChar: quotedbl
Encoding: 34 34 299
Width: 764
VWidth: 0
Flags: W
LayerCount: 2
Fore
SplineSet
229.9 912 m 1
 241.5 1456 l 1
 450.5 1456 l 1
 338.8 912 l 1
 229.9 912 l 1
551.2 912 m 1
 562.8 1456 l 1
 771.8 1456 l 1
 660.1 912 l 1
 551.2 912 l 1
EndSplineSet
EndChar

StartChar: quotedblbase
Encoding: 8222 8222 300
Width: 1024
VWidth: 0
Flags: W
LayerCount: 2
Fore
SplineSet
131.4 -230 m 1
 279.2 229.9 l 1
 504.2 229.9 l 1
 306.8 -230 l 1
 131.4 -230 l 1
477.9 -230 m 1
 626 229.9 l 1
 851 229.9 l 1
 649.7 -230 l 1
 477.9 -230 l 1
EndSplineSet
EndChar

StartChar: quotedblleft
Encoding: 8220 8220 301
Width: 1024
VWidth: 0
Flags: W
LayerCount: 2
Fore
SplineSet
216.1 990.5 m 1
 416.4 1450 l 1
 590.8 1450 l 1
 441.4 990.5 l 1
 216.1 990.5 l 1
598.8 990.5 m 1
 789.2 1450 l 1
 962.6 1450 l 1
 814.2 990.5 l 1
 598.8 990.5 l 1
EndSplineSet
EndChar

StartChar: quotedblright
Encoding: 8221 8221 302
Width: 1024
VWidth: 0
Flags: W
LayerCount: 2
Fore
SplineSet
235.7 990.5 m 1
 382.5 1450 l 1
 608.8 1450 l 1
 408.2 990.5 l 1
 235.7 990.5 l 1
582.6 990.5 m 1
 731 1450 l 1
 955.7 1450 l 1
 754.1 990.5 l 1
 582.6 990.5 l 1
EndSplineSet
EndChar

StartChar: quoteleft
Encoding: 8216 8216 303
Width: 595
VWidth: 0
Flags: W
HStem: 1004 452
VStem: 251 356
LayerCount: 2
Fore
SplineSet
241.1 996.5 m 1
 405 1456 l 1
 613.9 1456 l 1
 430.4 996.5 l 1
 241.1 996.5 l 1
EndSplineSet
EndChar

StartChar: quoteright
Encoding: 8217 8217 304
Width: 508
VWidth: 0
Flags: W
HStem: 1005 451
VStem: 178 355
LayerCount: 2
Fore
SplineSet
185.2 997.2 m 1
 333.3 1456 l 1
 557.3 1456 l 1
 356.7 997.2 l 1
 185.2 997.2 l 1
EndSplineSet
EndChar

StartChar: quotesinglbase
Encoding: 8218 8218 305
Width: 553
VWidth: 0
Flags: W
LayerCount: 2
Fore
SplineSet
86.4 -230 m 1
 237.5 229.9 l 1
 461.5 229.9 l 1
 260.5 -230 l 1
 86.4 -230 l 1
EndSplineSet
EndChar

StartChar: quotesingle
Encoding: 39 39 306
Width: 554
VWidth: 0
Flags: W
LayerCount: 2
Fore
SplineSet
276.7 974.1 m 1
 281 1456 l 1
 508 1456 l 1
 438.8 974.1 l 1
 276.7 974.1 l 1
EndSplineSet
EndChar

StartChar: r
Encoding: 114 114 307
Width: 800
VWidth: 0
Flags: W
HStem: 0 21<164.1 164.1 164.1 368.6> 887 164 1006 20<241 453.5 453.5 453.5>
VStem: 244 196
LayerCount: 2
Fore
SplineSet
164.1 0 m 1
 231.8 772.9 l 2
 237.6 835.8 241 1026 241 1026 c 1
 453.5 1026 l 1
 441.2 860.4 l 1
 506.4 988.1 612.1 1051.3 724.6 1051.3 c 0
 759.1 1051.3 795.5 1047 829.4 1037.7 c 1
 814.2 853.8 l 1
 791.4 861.5 747.3 876.2 697.4 876.2 c 0
 550.5 876.2 435.6 768 418.9 574.1 c 2
 368.6 0 l 1
 164.1 0 l 1
EndSplineSet
EndChar

StartChar: radical
Encoding: 8730 8730 309
Width: 1314
VWidth: 0
Flags: W
LayerCount: 2
Fore
SplineSet
545.9 -148.2 m 1
 297.5 664 l 1
 295.9 663.7 129.3 634.7 129.3 634.7 c 1
 110.3 778.8 l 1
 444.9 834 l 1
 639.5 145.6 l 1
 1148.4 1576.1 l 1
 1324.6 1576.1 l 1
 713.6 -148.2 l 1
 545.9 -148.2 l 1
EndSplineSet
EndChar

StartChar: registered
Encoding: 174 174 312
Width: 1829
VWidth: 0
Flags: W
LayerCount: 2
Fore
SplineSet
820.2 803.2 m 1
 930.8 803.2 l 2
 1080 803.2 1170.6 815 1180 923.2 c 0
 1190.4 1042.4 1127.3 1056.9 946.2 1056.9 c 2
 843 1056.9 l 1
 820.2 803.2 l 1
592.3 281 m 1
 673.3 1204.2 l 1
 961.1 1204.2 l 2
 1251.2 1204.2 1381.8 1108.3 1367.5 936.9 c 0
 1356.8 819.7 1280.3 710.7 1099.1 682.9 c 1
 1168.4 625.5 1225.8 520.7 1345.8 281 c 1
 1126.8 281 l 1
 1065.8 437.6 965.3 629.5 920 657.6 c 1
 808.7 657.6 l 1
 775.3 281 l 1
 592.3 281 l 1
1024.2 1367.2 m 0
 645.1 1367.2 345 1086.8 314 728.8 c 0
 282.7 369.9 535 86.2 914.4 86.2 c 0
 1291.5 86.2 1592.6 368.9 1623.6 725.9 c 0
 1654.9 1085.8 1401.9 1367.2 1024.2 1367.2 c 0
1032.2 1483.7 m 0
 1481.8 1483.7 1795.2 1142.3 1758.5 727.9 c 0
 1721.8 312.7 1349.8 -27.2 904.7 -27.2 c 0
 452.8 -27.2 140.6 313.3 177.3 729.5 c 0
 214 1144.5 588 1483.7 1032.2 1483.7 c 0
EndSplineSet
EndChar

StartChar: ring
Encoding: 730 730 313
Width: 605
VWidth: 0
Flags: W
HStem: 1131 94 1433 93
VStem: 210 435
LayerCount: 2
Fore
SplineSet
422.9 1219.3 m 0
 484.1 1219.3 528.5 1267.6 533.2 1321.4 c 0
 538.2 1376.2 502.9 1426.7 439.6 1426.7 c 0
 378.4 1426.7 333.3 1377.1 328.3 1323 c 0
 323.6 1267.8 356.2 1219.3 422.9 1219.3 c 0
415.3 1121.4 m 0
 275.5 1121.4 200.7 1215.3 209.7 1320.7 c 0
 219.4 1427.8 312.7 1523.9 449.2 1523.9 c 0
 585.8 1523.9 661.8 1426.4 652.8 1321.4 c 0
 643.8 1216.7 551.1 1121.4 415.3 1121.4 c 0
EndSplineSet
EndChar

StartChar: s
Encoding: 115 115 314
Width: 995
VWidth: 0
Flags: W
HStem: -23 153 897 154
VStem: 186 198 727 197
LayerCount: 2
Fore
SplineSet
934.8 304.9 m 1
 928.5 59.4 701.2 -22.7 518.9 -22.7 c 0
 293.3 -22.7 154.4 70.6 126.1 95.9 c 1
 189.4 249.9 l 1
 224.8 224.3 360.9 141.4 508.2 141.4 c 0
 615.6 141.4 722.5 175.8 724.9 289.7 c 0
 726.7 374.6 644.5 399.2 500.5 445.5 c 0
 332.7 499.2 177.9 559.8 183.9 742 c 1
 189.6 964.8 389.2 1051.3 583.6 1051.3 c 0
 775 1051.3 894.2 988.1 938 961.8 c 1
 870.3 817.8 l 1
 845.8 830.9 727.7 886.5 603.4 886.5 c 0
 483.2 886.5 396.9 849.5 395.1 759.3 c 0
 393.6 677.4 483.2 650.8 628.5 601.2 c 1
 796 545.8 940.8 497 934.8 304.9 c 1
EndSplineSet
EndChar

StartChar: section
Encoding: 167 167 320
Width: 1079
VWidth: 0
Flags: W
LayerCount: 2
Fore
SplineSet
660.5 576.5 m 1
 705.1 608.8 755.6 652.3 761 715.6 c 0
 769.4 814.6 661.7 839.1 566 888.9 c 1
 510.7 854.1 465.1 817.5 459.4 750 c 0
 452 666.1 527.9 636.7 660.5 576.5 c 1
494.7 -34.2 m 0
 397.3 -34.2 294.9 -15.6 204 22.3 c 1
 218.5 199.2 l 1
 308.3 158.7 413.4 132.3 501.7 132.3 c 0
 620.9 132.3 703.6 179.1 711.3 264.2 c 0
 717.7 332.6 556 400.7 440.8 460.1 c 1
 312.4 521.8 229.3 610.7 240 731.9 c 0
 248.7 835 332.8 917.6 428.2 970.5 c 1
 349.1 1029.2 306.1 1094.6 315.8 1204.8 c 0
 333.1 1399.1 512.1 1487.2 717.9 1487.2 c 0
 806.8 1487.2 888.1 1471.2 971.2 1442.7 c 1
 957 1274.5 l 1
 898.6 1295.8 797.1 1320.4 718 1320.4 c 0
 617.5 1320.4 535.9 1296.8 529.2 1213.3 c 0
 523.5 1142.9 582 1095.3 728.6 1026.5 c 1
 869.1 956.9 999.5 883.5 987.2 741.2 c 0
 978.5 639.2 894.7 557.6 802 496.7 c 1
 883.4 449 934.5 381.5 924.8 271.6 c 0
 906.5 66.1 710.6 -34.2 494.7 -34.2 c 0
EndSplineSet
EndChar

StartChar: semicolon
Encoding: 59 59 321
Width: 542
VWidth: 0
Flags: W
LayerCount: 2
Fore
SplineSet
39.3 -247 m 1
 188.2 235.9 l 1
 419.5 235.9 l 1
 208.2 -247 l 1
 39.3 -247 l 1
220.6 862.2 m 1
 241.5 1100.4 l 1
 475.2 1100.4 l 1
 454.3 862.2 l 1
 220.6 862.2 l 1
EndSplineSet
EndChar

StartChar: seven
Encoding: 55 55 322
Width: 1240
VWidth: 0
Flags: W
HStem: 0 21<325.8 325.8 325.8 554.5> 1292 164
LayerCount: 2
Fore
SplineSet
325.8 0 m 1
 965.4 1281.5 l 1
 259.9 1281.5 l 1
 275.8 1456 l 1
 1218.5 1456 l 1
 1205.3 1297.2 l 1
 554.5 0 l 1
 325.8 0 l 1
EndSplineSet
EndChar

StartChar: six
Encoding: 54 54 323
Width: 1237
VWidth: 0
Flags: W
HStem: -23 169 782 160 1313 170
LayerCount: 2
Fore
SplineSet
669.5 -23 m 0
 316 -23 173.3 267.7 210.6 694.9 c 0
 248.6 1126.6 471.9 1483 853.8 1483 c 0
 999.7 1483 1116.5 1437.2 1193.5 1363 c 1
 1108.7 1208.2 l 1
 1037.4 1268.9 946 1301.9 839.2 1301.9 c 0
 624.1 1301.9 491 1092.4 446.8 837.7 c 0
 442.5 816.8 440.2 794.6 437.9 772.7 c 1
 518.5 879.4 632.6 946.8 786.8 946.8 c 0
 1052.3 946.8 1222.7 761.6 1197.4 469.8 c 0
 1173.1 189.6 969 -23 669.5 -23 c 0
685.3 157.4 m 0
 852.7 157.4 964.2 290.1 979.6 465.4 c 0
 995 639.3 920 775.4 741.7 775.4 c 0
 571.1 775.4 443.8 656.5 429.8 491.8 c 0
 411.7 282.9 516.1 157.4 685.3 157.4 c 0
EndSplineSet
EndChar

StartChar: slash
Encoding: 47 47 324
Width: 965
VWidth: 0
Flags: W
LayerCount: 2
Fore
SplineSet
84.2 -120 m 1
 795.5 1456 l 1
 987.2 1456 l 1
 271.6 -120 l 1
 84.2 -120 l 1
EndSplineSet
EndChar

StartChar: sterling
Encoding: 163 163 326
Width: 1243
VWidth: 0
Flags: W
LayerCount: 2
Fore
SplineSet
166.9 0 m 1
 179.2 160.8 l 1
 270.4 224.7 370.4 318.2 391.2 555.1 c 2
 401.5 674.3 l 1
 207.1 674.3 l 1
 220 826.1 l 1
 412.8 826.1 l 1
 420.9 912.2 l 1
 448.2 1220.7 550 1467.6 923 1467.6 c 0
 1058.5 1467.6 1155.9 1434.8 1221.3 1390.4 c 1
 1154.2 1236.1 l 1
 1091.8 1272.1 1019.4 1297.7 918.8 1297.7 c 0
 731.1 1297.7 652.3 1184.5 632.7 959.2 c 0
 631.1 939.6 623.9 847.9 623.9 826.1 c 1
 945 826.1 l 1
 931.4 674.3 l 1
 615.5 674.3 l 1
 615.2 666.9 606.5 563.4 604.9 552.5 c 0
 588.9 408.5 526.3 235.3 461.8 170.5 c 1
 1128.4 170.5 l 1
 1114.2 0 l 1
 166.9 0 l 1
EndSplineSet
EndChar

StartChar: summation
Encoding: 8721 8721 327
Width: 1264
VWidth: 0
Flags: W
LayerCount: 2
Fore
SplineSet
57.6 -269.7 m 1
 68.2 -158.5 l 1
 748.6 600.4 l 1
 221.4 1345.3 l 1
 231.7 1456 l 1
 1337 1456 l 1
 1321.1 1284.5 l 1
 517.3 1284.5 l 1
 997.8 606.2 l 1
 374.7 -91.2 l 1
 1244.5 -91.2 l 1
 1229.3 -269.7 l 1
 57.6 -269.7 l 1
EndSplineSet
EndChar

StartChar: t
Encoding: 116 116 328
Width: 772
VWidth: 0
Flags: W
HStem: 0 147 901 125
VStem: 125 655
LayerCount: 2
Fore
SplineSet
708.582047982 0.3 m 1
 649.282047982 0.3 l 2
 357.282047982 0.3 211.782047982 45.6 238.982047982 355.3 c 2
 286.082047982 891.1 l 1
 119.882047982 891.1 l 1
 131.782047982 1026 l 1
 303.882047982 1026 l 1
 327.282047982 1282.9 l 1
 529.482047982 1342.1 l 1
 501.482047982 1026 l 1
 783.282047982 1026 l 1
 771.382047982 891.1 l 1
 489.582047982 891.1 l 1
 441.482047982 335.2 l 2
 427.382047982 177.3 488.282047982 157.5 722.482047982 157.5 c 1
 708.582047982 0.3 l 1
EndSplineSet
EndChar

StartChar: tbar
Encoding: 359 359 329
Width: 778
VWidth: 0
Flags: W
LayerCount: 2
Fore
SplineSet
91.9 556.7 m 1
 105.5 712.3 l 1
 727.4 712.3 l 1
 713.8 556.7 l 1
 91.9 556.7 l 1
EndSplineSet
Refer: 328 116 N 1 0 0 1 0 0 2
EndChar

StartChar: thorn
Encoding: 254 254 332
Width: 1233
VWidth: 0
Flags: W
LayerCount: 2
Fore
SplineSet
115.3 -411.9 m 1
 279.3 1459.2 l 1
 480 1459.2 l 1
 427.4 889.4 l 1
 497.3 986.3 612.1 1051 757.8 1051 c 0
 1061.2 1051 1206.2 809.4 1181.2 525.7 c 0
 1156.2 239.3 959.3 -23 679.9 -23 c 0
 531.7 -23 417.8 32 359.8 131.8 c 1
 311.4 -411.9 l 1
 115.3 -411.9 l 1
646.4 141.1 m 0
 847.6 141.1 948 321 965.4 521 c 0
 981.8 709.3 928.2 884.9 717.9 884.9 c 0
 499.2 884.9 408.8 698.3 391.1 494 c 0
 373.7 291.3 459.2 141.1 646.4 141.1 c 0
EndSplineSet
EndChar

StartChar: three
Encoding: 51 51 333
Width: 1237
VWidth: 0
Flags: W
HStem: -23 169 677 165 1314 169
LayerCount: 2
Fore
SplineSet
612.5 -23 m 0
 387.5 -23 213.8 56.3 156.1 201.1 c 1
 281 341.4 l 1
 343 224.2 470.8 157.4 627.1 157.4 c 0
 794.3 157.4 928.6 254 942.3 413.3 c 0
 958.7 598.7 824.1 671 596.2 671 c 0
 572.9 671 531.6 670.3 498 668 c 1
 510.3 848.4 l 1
 538 847.4 582.9 847.4 595.8 847.4 c 0
 811.8 847.4 942.6 910 959.3 1104.6 c 0
 970.7 1240 870.6 1302.6 725.6 1302.6 c 0
 567.1 1302.6 446.1 1244.2 358.3 1129.1 c 1
 247.1 1263.1 l 1
 357.1 1414 539.1 1483 753.8 1483 c 0
 989.7 1483 1203.1 1350.1 1181.8 1101.4 c 0
 1167.4 937.1 1057.8 809.5 867.3 769.8 c 1
 1060.9 731.1 1174.5 592.1 1158.8 409 c 0
 1135.5 140.2 890.1 -23 612.5 -23 c 0
EndSplineSet
EndChar

StartChar: threequarters
Encoding: 190 190 334
Width: 2244
VWidth: 0
Flags: W
LayerCount: 2
Fore
SplineSet
559 571.5 m 0
 459.8 571.5 360.7 604.5 284.1 666.9 c 1
 359.2 793.1 l 1
 432 736.3 511.3 715.1 568.5 715.1 c 0
 646.2 715.1 707.7 757.4 714.4 832.8 c 0
 721.8 913.8 652.7 943.7 536.1 943.7 c 0
 534 943.7 463.1 943 463.1 943 c 1
 476 1094.1 l 1
 543.9 1094.1 l 2
 641.9 1094.1 716 1118.3 722.4 1192.3 c 0
 728.1 1257.8 680.7 1287.6 613.8 1287.6 c 0
 542.5 1287.6 462.1 1256.9 389.2 1209.6 c 1
 337.6 1334.5 l 1
 418.7 1391.6 528.3 1432.6 635.2 1432.6 c 0
 774.9 1432.6 905.6 1352.2 892.6 1206.2 c 0
 885.9 1136.2 849 1059 762.9 1022 c 1
 848.2 981.8 888 916.8 880.3 829.8 c 0
 865.7 660.1 721.3 571.5 559 571.5 c 0
1604.4 326.5 m 1
 1791 326.5 l 1
 1815.2 602.4 l 1
 1604.4 326.5 l 1
1765.7 16.1 m 1
 1782.4 196.7 l 1
 1417.9 196.7 l 1
 1427.5 308.6 l 1
 1833 820.5 l 1
 1994.6 820.5 l 1
 1951.6 326.5 l 1
 2064.1 326.5 l 1
 2058.4 196.7 l 1
 1939.6 196.7 l 1
 1923.6 16.1 l 1
 1765.7 16.1 l 1
628.6 0 m 1
 1649.4 1430 l 1
 1845.6 1430 l 1
 825.8 0 l 1
 628.6 0 l 1
EndSplineSet
EndChar

StartChar: tilde
Encoding: 732 732 335
Width: 663
VWidth: 0
Flags: W
HStem: 1192 145 1274 144
VStem: 116 121 675 125
LayerCount: 2
Fore
SplineSet
111.8 1172.2 m 1
 135.1 1314.2 213.9 1421 333.6 1421 c 0
 438.8 1421 527.2 1332.8 594.6 1332.8 c 0
 637.7 1332.8 659.3 1368.6 672.6 1430.8 c 1
 806.6 1430.8 l 1
 781.7 1295.4 711.4 1177 587.1 1177 c 0
 499.1 1177 392.7 1266.2 324.1 1266.2 c 0
 284.6 1266.2 254.4 1238.5 242.1 1172.2 c 1
 111.8 1172.2 l 1
EndSplineSet
EndChar

StartChar: trademark
Encoding: 8482 8482 336
Width: 1869
VWidth: 0
Flags: W
LayerCount: 2
Fore
SplineSet
871.3 662.6 m 1
 938.6 1435.9 l 1
 1157.8 1435.9 l 1
 1326.2 934 l 1
 1593.1 1435.9 l 1
 1802.3 1435.9 l 1
 1735 662.6 l 1
 1580.3 662.6 l 1
 1623.6 1163.2 l 1
 1348.3 662.6 l 1
 1238.5 662.6 l 1
 1066.8 1157.4 l 1
 1023.1 662.6 l 1
 871.3 662.6 l 1
392 662.6 m 1
 448.1 1302.5 l 1
 200.2 1302.5 l 1
 211.4 1435.9 l 1
 870.3 1435.9 l 1
 857.4 1302.5 l 1
 604.8 1302.5 l 1
 549.4 662.6 l 1
 392 662.6 l 1
EndSplineSet
EndChar

StartChar: two
Encoding: 50 50 337
Width: 1237
VWidth: 0
Flags: W
HStem: 0 164<168.5 183.1 183.1 183.1 183.1 1075.8> 1314 168
VStem: 964 197
LayerCount: 2
Fore
SplineSet
168.5 0 m 1
 183.1 164 l 1
 681.9721 650.56 l 1
 847.7201 810.7061 952.613818456 933.010211031 955.8941 1094.607 c 0
 959.4941 1235.888 869.3252 1302.6 728.4 1302.6 c 0
 583 1302.6 445.4 1238.6 360.5 1107.2 c 1
 247.1 1228.3 l 1
 342.8 1391.9 530.3 1481.7 746.5 1481.7 c 0
 1002.343 1481.7 1174.514 1354.757 1167.314 1106.209 c 1
 1162.664 881.111 1007.5295 701.4088 810.1507 514.36 c 1
 456.4 174.5 l 1
 1091.7 174.5 l 1
 1075.8 0 l 1
 168.5 0 l 1
EndSplineSet
EndChar

StartChar: u
Encoding: 117 117 338
Width: 1212
VWidth: 0
Flags: W
HStem: -23 153 0 21<851.1 1060.7 851.1 851.1> 1006 20<237.7 440.9 440.9 440.9 936.6 1141.1 1141.1 1141.1>
VStem: 864 197
LayerCount: 2
Fore
SplineSet
524.9 -22.7 m 0
 273.1 -19.2 163.2 165.3 182.1 388.1 c 2
 237.7 1026 l 1
 440.9 1026 l 1
 385.6 388.3 l 2
 371.2 223.1 456.4 142.8 597.4 141.4 c 0
 766.9 139.3 868.3 250.3 883.3 422.5 c 2
 936.6 1026 l 1
 1141.1 1026 l 1
 1073.7 260.1 l 2
 1067.3 187.8 1061.4 37.8 1060.7 0 c 1
 851.1 0 l 1
 862.6 181.7 l 1
 834.1 112.8 732.4 -25.5 524.9 -22.7 c 0
EndSplineSet
EndChar

StartChar: underscore
Encoding: 95 95 346
Width: 961
VWidth: 0
Flags: W
LayerCount: 2
Fore
SplineSet
-15 -215 m 1
 -1.1 -54.9 l 1
 976.1 -54.9 l 1
 962.2 -215 l 1
 -15 -215 l 1
EndSplineSet
EndChar

StartChar: uni007F
Encoding: 127 127 348
Width: 1521
VWidth: 0
Flags: W
HStem: 0 124<372.4 1173.4 372.4 1334.4> 1330 126<478.4 478.4 478.4 1279.4>
LayerCount: 2
Fore
SplineSet
189.4 0 m 1
 317.4 1456 l 1
 1462.4 1456 l 1
 1334.4 0 l 1
 189.4 0 l 1
478.4 1330 m 1
 372.4 124 l 1
 1173.4 124 l 1
 1279.4 1330 l 1
 478.4 1330 l 1
EndSplineSet
EndChar

StartChar: uni00AD
Encoding: 173 173 350
Width: 728
VWidth: 0
Flags: W
LayerCount: 2
Fore
SplineSet
172.9 1217.1 m 1
 185.5 1371.3 l 1
 782.2 1371.3 l 1
 769.6 1217.1 l 1
 172.9 1217.1 l 1
EndSplineSet
EndChar

StartChar: uni00B2
Encoding: 178 178 351
Width: 946
VWidth: 0
Flags: W
LayerCount: 2
Fore
SplineSet
256 638 m 1
 267 767 l 1
 567 1009 712 1145 721 1239 c 0
 727 1305 680 1344 601 1344 c 0
 523 1344 444 1300 387 1232 c 1
 319 1335 l 1
 390 1426 502 1479 621 1479 c 0
 774 1479 886 1394 873 1241 c 0
 858 1073 688 934 483 777 c 1
 828 777 l 1
 816 638 l 1
 256 638 l 1
EndSplineSet
EndChar

StartChar: uni00B3
Encoding: 179 179 352
Width: 943
VWidth: 0
Flags: W
LayerCount: 2
Fore
SplineSet
536 620 m 0
 438 620 337 652 267 715 c 1
 340 831 l 1
 405 776 485 753 544 753 c 0
 628 753 691 798 698 877 c 0
 706 964 632 996 510 996 c 2
 443 996 l 1
 455 1135 l 1
 517 1135 l 2
 621 1135 698 1161 705 1241 c 0
 711 1311 667 1343 595 1343 c 0
 524 1343 442 1312 373 1265 c 1
 322 1379 l 1
 398 1437 510 1479 613 1479 c 0
 753 1479 875 1398 862 1252 c 0
 855 1179 816 1099 703 1068 c 1
 811 1036 858 964 850 874 c 0
 836 710 698 620 536 620 c 0
EndSplineSet
EndChar

StartChar: uni00B9
Encoding: 185 185 353
Width: 913
VWidth: 0
Flags: W
LayerCount: 2
Fore
SplineSet
324 646 m 1
 335 766 l 1
 480 766 l 1
 526 1303 l 1
 483 1282 408 1258 357 1240 c 1
 372 1380 l 1
 451 1405 520 1433 566 1459 c 1
 688 1476 l 1
 625 763 l 1
 768 763 l 1
 758 646 l 1
 324 646 l 1
EndSplineSet
EndChar

StartChar: uni02C9
Encoding: 713 713 394
Width: 728
VWidth: 0
Flags: W
LayerCount: 2
Fore
SplineSet
172 1188 m 1
 184 1335 l 1
 772 1335 l 1
 760 1188 l 1
 172 1188 l 1
EndSplineSet
EndChar

StartChar: uni0311
Encoding: 785 785 395
Width: 629
VWidth: 0
Flags: W
HStem: 1347 109<402 490>
VStem: 152 108<1218 1218> 617 99<1218 1218>
LayerCount: 2
Fore
SplineSet
152 1218 m 1
 179 1379 291 1456 456 1456 c 0
 613 1456 718 1376 716 1218 c 1
 617 1218 l 1
 603 1309 534 1347 446 1347 c 0
 358 1347 284 1314 260 1218 c 1
 152 1218 l 1
EndSplineSet
EndChar

StartChar: uni2015
Encoding: 8213 8213 411
Width: 4096
VWidth: 0
Flags: W
LayerCount: 2
Fore
SplineSet
85.6 472 m 1
 99.5 633.4 l 1
 4076.5 633.4 l 1
 4062.6 472 l 1
 85.6 472 l 1
EndSplineSet
EndChar

StartChar: uni2074
Encoding: 8308 8308 412
Width: 897
VWidth: 0
Flags: W
LayerCount: 2
Fore
SplineSet
555 655 m 1
 571 838 l 1
 202 838 l 1
 211 942 l 1
 619 1456 l 1
 771 1456 l 1
 726 953 l 1
 838 953 l 1
 835 838 l 1
 716 838 l 1
 700 655 l 1
 555 655 l 1
356 953 m 1
 579 953 l 1
 607 1274 l 1
 356 953 l 1
EndSplineSet
EndChar

StartChar: uni2206
Encoding: 8710 8710 413
Width: 1314
VWidth: 0
Flags: W
LayerCount: 2
Fore
SplineSet
128 0 m 1
 135 80 l 1
 775 1429 l 1
 882 1429 l 1
 1283 80 l 1
 1276 0 l 1
 128 0 l 1
301 108 m 1
 1125 108 l 1
 837 1131 l 1
 812 1228 l 1
 771 1131 l 1
 301 108 l 1
EndSplineSet
EndChar

StartChar: uniFB00
Encoding: 64256 64256 416
Width: 1430
VWidth: 0
Flags: W
HStem: 0 21<237 427 237 237 921 1111 921 921> 901 125<143 316 132 327 517 1000 1201 1452> 1341 148<778 797 1462 1481>
LayerCount: 2
Fore
SplineSet
921 0 m 1
 1000 901 l 1
 506 901 l 1
 427 0 l 1
 237 0 l 1
 316 901 l 1
 132 901 l 1
 143 1026 l 1
 327 1026 l 1
 336 1129 l 1
 361 1393 436 1488 778 1489 c 1
 812 1489 l 1
 797 1341 l 1
 577 1341 543 1315 526 1133 c 1
 517 1026 l 1
 1011 1026 l 1
 1020 1129 l 1
 1045 1393 1120 1488 1462 1489 c 1
 1496 1489 l 1
 1481 1341 l 1
 1261 1341 1227 1315 1210 1133 c 1
 1201 1026 l 1
 1463 1026 l 1
 1452 901 l 1
 1190 901 l 1
 1111 0 l 1
 921 0 l 1
EndSplineSet
EndChar

StartChar: uniFB01
Encoding: 64257 64257 417
Width: 1214
VWidth: 0
Flags: W
HStem: 1334 148<777 799 799 799>
LayerCount: 2
Fore
SplineSet
1126 1288 m 1
 1142 1462 l 1
 964 1462 l 1
 948 1288 l 1
 1126 1288 l 1
428 0 m 1
 506 901 l 1
 904 901 l 1
 826 0 l 1
 1016 0 l 1
 1106 1026 l 1
 517 1026 l 1
 526 1124 l 2
 542 1300 557 1332 755 1334 c 1
 799 1334 l 1
 812 1482 l 1
 777 1482 l 1
 415 1479 357 1373 334 1109 c 2
 327 1026 l 1
 143 1026 l 1
 132 901 l 1
 316 901 l 1
 238 0 l 1
 428 0 l 1
EndSplineSet
EndChar

StartChar: uniFB02
Encoding: 64258 64258 418
Width: 1277
VWidth: 0
Flags: W
HStem: 0 21<250 440 250 250 918 918 918 1107> 901 125<143 329 132 340 530 762> 1317 148<834 837 837 1033>
LayerCount: 2
Fore
SplineSet
519 901 m 1
 440 0 l 1
 250 0 l 1
 329 901 l 1
 132 901 l 1
 143 1026 l 1
 340 1026 l 1
 345 1092 l 1
 368 1357 462 1465 834 1465 c 2
 1235 1465 l 1
 1107 0 l 1
 918 0 l 1
 1033 1317 l 1
 837 1317 l 2
 597 1317 551 1272 538 1124 c 2
 530 1026 l 1
 773 1026 l 1
 762 901 l 1
 519 901 l 1
EndSplineSet
EndChar

StartChar: v
Encoding: 118 118 424
Width: 1081
VWidth: 0
Flags: W
LayerCount: 2
Fore
SplineSet
441.629010633 0 m 1
 102.429010633 1026 l 1
 325.9 1026 l 1
 505.7 415.5 l 1
 563.7 215.2 l 1
 652.2 415.5 l 1
 939.229010633 1026 l 1
 1159.22901063 1026 l 1
 636.629010633 0 l 1
 441.629010633 0 l 1
EndSplineSet
EndChar

StartChar: w
Encoding: 119 119 425
Width: 1636
VWidth: 0
Flags: W
HStem: 0 21<365.729 365.729 365.729 549.229 1078.93 1078.93 1078.93 1260.73> 1006 20<107.329 322.529 322.529 322.529 831.629 1019.43 1019.43 1019.43 1509.13 1706.33 1706.33 1706.33>
LayerCount: 2
Fore
SplineSet
365.729010633 0 m 1
 107.329010633 1026 l 1
 322.529010633 1026 l 1
 465.529010633 374.2 l 1
 494.829010633 240.4 l 1
 547.929010633 365.4 l 1
 831.629010633 1026 l 1
 1019.42901063 1026 l 1
 1174.42901063 359.5 l 1
 1201.92901063 239.1 l 1
 1248.32901063 357.6 l 1
 1509.12901063 1026 l 1
 1706.32901063 1026 l 1
 1260.72901063 0 l 1
 1078.92901063 0 l 1
 924.029010633 646.2 l 1
 891.029010633 782.1 l 1
 831.429010633 647.6 l 1
 549.229010633 0 l 1
 365.729010633 0 l 1
EndSplineSet
EndChar

StartChar: x
Encoding: 120 120 430
Width: 1037
VWidth: 0
Flags: W
HStem: 0 21<40.8 40.8 40.8 254.5 787.6 787.6 787.6 1006.3> 1006 20<147.4 367.1 367.1 367.1 877.3 1087 1087 1087>
LayerCount: 2
Fore
SplineSet
40.8 0 m 1
 455.8 507.6 l 1
 147.4 1026 l 1
 367.1 1026 l 1
 582.3 659.8 l 1
 877.3 1026 l 1
 1087 1026 l 1
 683.1 527.8 l 1
 1006.3 0 l 1
 787.6 0 l 1
 558.3 374.9 l 1
 254.5 0 l 1
 40.8 0 l 1
EndSplineSet
EndChar

StartChar: y
Encoding: 121 121 431
Width: 1082
VWidth: 0
Flags: W
LayerCount: 2
Fore
SplineSet
168.029010633 -437.6 m 1
 109.929010633 -298.3 l 1
 297.829010633 -242.2 398.929010633 -130.3 438.729010633 -42.3 c 1
 464.729010633 13.3 l 1
 130.629010633 1026 l 1
 341.229010633 1026 l 1
 579.429010633 226.9 l 1
 929.829010633 1026 l 1
 1142.02901063 1026 l 1
 625.629010633 -69.2 l 1
 529.129010633 -270 373.529010633 -398.4 168.029010633 -437.6 c 1
EndSplineSet
EndChar

StartChar: yen
Encoding: 165 165 435
Width: 1243
VWidth: 0
Flags: W
LayerCount: 2
Fore
SplineSet
1086.2 263.6 m 1
 189 263.6 l 1
 202.3 411.3 l 1
 585.9 411.3 l 1
 597.7 544.6 l 1
 214.1 544.6 l 1
 227 696.9 l 1
 1123.6 696.9 l 1
 1110 544.6 l 1
 726.7 544.6 l 1
 714.9 411.3 l 1
 1099.5 411.3 l 1
 1086.2 263.6 l 1
EndSplineSet
Refer: 117 89 N 1 0 0 1 -2.2 0 2
EndChar

StartChar: z
Encoding: 122 122 437
Width: 966
VWidth: 0
Flags: W
LayerCount: 2
Fore
SplineSet
99.9684034113 0 m 1
 109.568403411 108.9 l 1
 685.668403411 861.5 l 1
 170.668403411 861.5 l 1
 185.568403411 1026 l 1
 964.068403411 1026 l 1
 953.768403411 919.1 l 1
 377.968403411 163.5 l 1
 902.768403411 163.5 l 1
 900.768403411 0 l 1
 99.9684034113 0 l 1
EndSplineSet
EndChar

StartChar: zero
Encoding: 48 48 441
Width: 1240
VWidth: 0
Flags: W
HStem: -23 169 1313 170
LayerCount: 2
Fore
SplineSet
643.796335234 157.4 m 0
 850.796335234 157.4 938.696335234 403.3 967.396335234 733.8 c 0
 994.196335234 1046 951.296335234 1301.9 743.996335234 1301.9 c 0
 530.396335234 1301.9 434.596335234 1047 406.796335234 734.5 c 0
 378.096335234 404 430.196335234 157.4 643.796335234 157.4 c 0
624.596335234 -23 m 0
 295.296335234 -23 150.996335234 287.1 190.296335234 734.8 c 0
 231.296335234 1200.8 425.996335234 1483 758.596335234 1483 c 0
 1090.89633523 1483 1226.69633523 1193.1 1185.99633523 734.8 c 0
 1146.69633523 287.7 959.196335234 -23 624.596335234 -23 c 0
EndSplineSet
EndChar
